<svg width="45" height="30" viewBox="0 0 45 30" fill="none" xmlns="http://www.w3.org/2000/svg">
<path d="M22.5 23.7321C24.9402 23.7321 27.0122 22.8836 28.716 21.1864C30.4213 19.4907 31.2739 17.4286 31.2739 15C31.2739 12.5714 30.4213 10.5093 28.716 8.81357C27.0122 7.11643 24.9402 6.26786 22.5 6.26786C20.0598 6.26786 17.9878 7.11643 16.284 8.81357C14.5787 10.5093 13.7261 12.5714 13.7261 15C13.7261 17.4286 14.5787 19.4907 16.284 21.1864C17.9878 22.8836 20.0598 23.7321 22.5 23.7321ZM22.5 30C17.5478 30 13.0356 28.6429 8.9634 25.9286C4.88971 23.2143 1.90191 19.5714 0 15C1.90191 10.4286 4.88971 6.78571 8.9634 4.07143C13.0356 1.35714 17.5478 0 22.5 0C27.4522 0 31.9651 1.35714 36.0388 4.07143C40.111 6.78571 43.0981 10.4286 45 15C43.0981 19.5714 40.111 23.2143 36.0388 25.9286C31.9651 28.6429 27.4522 30 22.5 30ZM22.5 26.7857C26.555 26.7857 30.2785 25.7229 33.6703 23.5971C37.0608 21.4729 39.6531 18.6071 41.4474 15C39.6531 11.3929 37.0608 8.52643 33.6703 6.40071C30.2785 4.27643 26.555 3.21429 22.5 3.21429C18.445 3.21429 14.7215 4.27643 11.3297 6.40071C7.93923 8.52643 5.34689 11.3929 3.55263 15C5.34689 18.6071 7.93923 21.4729 11.3297 23.5971C14.7215 25.7229 18.445 26.7857 22.5 26.7857Z" fill="white"/>
</svg>
