<svg width="613" height="92" viewBox="0 0 613 92" fill="none" xmlns="http://www.w3.org/2000/svg">
<path d="M0.9 39H77.8L82.6 32.9C82.6 32.9 88.2 37.2 91.7 40.4C91.4 41.4 90.4 41.9 89 41.9H1.8L0.9 39ZM62.5 39H70V40.6C63 72.8 47.1 86.8 0.4 91.6L0 89.7C40.5 83.1 57.2 69.8 62.5 39ZM23.5 62.4C91.2 72.3 89.9 95.2 79.9 91.2C71.2 82.6 50.4 70.8 23.1 64.1L23.5 62.4ZM38.3 20.7L48.1 22.6C47.7 23.9 46.7 24.8 44.2 24.8C40.3 35.3 29.3 59.6 22.6 72.4C21 73.2 18.3 73 15.6 71.9C22.6 60 34.6 32.7 38.3 20.7ZM12.3 14.6H84.3V17.6H12.3V14.6ZM42.8 0L53.1 0.900002C52.9 2.3 51.9 3.3 49.4 3.7V15.9H42.8V0ZM11.8 9L13.4 8.9C17.1 20.2 13.5 27.3 9.7 30.1C7.2 31.9 3.5 32.1 2.3 29.7C1.3 27.5 2.7 25.4 4.7 24.1C8.7 21.9 12.3 15.8 11.8 9ZM81.1 14.6H80L84.3 10.3L92 17.7C91.3 18.5 90.1 18.7 88.2 18.8C85.5 22.2 80.5 27.2 76.7 30L75.4 29.2C77.3 25.3 80 18.5 81.1 14.6Z" fill="#19315A"/>
<path d="M117.7 33.1H119.4C123.6 50.8 118.1 62.1 113.6 66.8C110.9 70 106.8 71.3 105.1 69.2C103.7 67.4 104.6 65 106.4 63.1C112.3 58.4 118 46.6 117.7 33.1ZM134 2.4C170.7 9.5 166.4 27.4 158.5 23.2C155.2 17.9 146.3 9.6 133.4 4L134 2.4ZM176.7 32C206.6 48.3 197.9 74.7 190.6 66.1C190.3 57.1 186.6 42.4 175.9 33L176.7 32ZM132.3 22.8L142.2 24C142 25.3 141 26.3 138.9 26.7V78.8C138.9 81.3 139.6 82.1 145 82.1H158C164 82.1 168.5 82 170.3 81.8C171.8 81.7 172.4 81.2 172.9 80.1C173.7 78.1 175.1 70.9 176.6 62.6H177.8L178.1 80.8C180.6 81.7 181.3 82.5 181.3 83.9C181.3 87.3 177.5 88.4 157.8 88.4H144.2C134.8 88.4 132.3 86.8 132.3 80.4V22.8Z" fill="#19315A"/>
<path d="M222.9 16.1C226.9 20.3 228.7 22.4 236.1 22.4C245.1 22.3 257.8 18.3 264 15.6C268.2 13.8 269 12.9 270.5 12.9C272.6 12.9 274.8 13.6 274.8 15.6C274.8 16.9 273.8 17.7 272 18.6C266 21.6 247.9 27.4 234.8 27.4C226.5 27.4 224.9 25.2 220.9 17.3L222.9 16.1ZM261.8 70.2C261.8 72.6 260.7 74 258.7 74C257 74 255.3 73 255.3 70.2C255.3 67.3 256 59.6 255.8 53.1C255.5 44 253.7 40.6 248.2 40.6C242.7 40.6 236.1 46.2 231.9 50.7C228.3 54.4 225.5 59.2 223.1 59.2C221.2 59.3 219.8 57.7 219.8 55.3C219.8 52.5 223.4 50 228 45.3C237.7 35.6 246.4 21 248.3 12.6C248.7 10.8 248.4 10 246.5 9.2C245.3 8.7 243.2 8.1 240.9 7.8V5.9C242.8 5.4 245 4.8 246.5 4.9C249.6 4.9 256.2 6.7 256.2 9.1C256.2 10.5 255.3 11.1 254.3 13.4C253.3 15.5 251.4 19.4 249.7 22.6C246.9 27.7 243.9 33 238.2 40.1C237.8 40.7 238.1 41.2 238.9 40.8C242 39.1 245.8 37.3 249.9 37.3C256.5 37.3 260.5 42.2 261.2 50.6C261.8 56.5 261.8 66.2 261.8 70.2ZM282.1 28.9C285.7 29.6 287.7 30.2 289.5 31.5C292 33.2 294.8 36.6 294.8 39.3C294.8 41.2 293.9 41.4 289.9 42.6C281.2 45.3 267 50.7 257.6 56C247.1 61.9 239.1 68.6 239.1 74.8C239.1 80.4 245.5 82.9 255.1 82.9C269.8 82.9 275.7 79.7 280.4 79.7C284 79.7 285.7 80.9 285.7 82.8C285.7 84.4 285.3 85.6 282 86.5C278.8 87.4 268.2 89.2 259.6 89.2C241.1 89.2 235 83.4 235 75.6C235 67.1 245.3 58.6 257.9 50.9C266.3 45.9 278.4 41 285.3 37.4C286.9 36.6 287.1 35.6 285.8 34C284.8 32.8 282.8 31.6 280.9 30.6L282.1 28.9Z" fill="#19315A"/>
<path d="M337.9 10.7L337.6 8.7C339.7 7.7 342.2 6.9 344.7 6.9C348.4 6.9 354.9 10.1 354.9 12.5C354.9 14.8 353.3 16.4 352.6 19.5C351.5 24.5 350.8 37.4 350.8 48.9C350.8 70.2 352.3 74.5 352.3 78.9C352.3 83.3 349.7 87.9 346.6 87.9C344.4 87.9 344.1 84.8 340.9 81.9C338.5 79.7 332.5 75.4 328.7 73.1L330.1 71.1C334 73.1 339.7 76.2 343.4 77.8C345.6 78.7 346.3 78 346.3 76C346.3 71 346.3 62.5 346.3 49.9C346.3 38.6 346.3 19 346.3 14.5C346.3 12.2 345.8 11.8 344.3 11.3C342.5 10.8 340.6 10.7 337.9 10.7ZM323.8 27C328.9 31.9 330.4 32.9 335.6 32.8C339.2 32.7 344.5 31.6 349.7 29.9C358.7 26.9 362.3 23.1 364.7 23.1C366.4 23.1 369.1 23.5 369.1 25.7C369.2 27.3 368 28.5 365.9 29.6C362 31.5 355 34 350 35.4C346.4 36.5 339.2 38.3 335.2 38.3C330.4 38.3 326.1 37.4 322 28.2L323.8 27ZM328.1 67.8C331.9 65.5 340.5 58.8 347.4 55.1C356.7 50 367.1 45.6 378.4 45.6C390 45.6 398.1 52.8 398.1 63.9C398.1 74 390.5 82.4 377.8 82.4C370.7 82.4 364.2 79.3 359 72.3L360.6 70.7C364.6 74 369.7 76.7 376.4 76.7C386.4 76.7 391.8 70.4 391.8 62.6C391.8 55.1 387 49.3 376.3 49.3C367.1 49.3 356.4 54.5 348 59.6C342.3 63 336 68.6 331.1 73.2C327.4 76.6 326 77.7 324.6 77.7C323.4 77.7 322.4 77 321.4 76C320 74.6 319.6 73.3 319.6 71.8C319.6 69.5 320.1 68.8 322.3 69C325.1 69.4 326.3 68.9 328.1 67.8ZM376.6 21.9L376.4 19.4C381.3 18.4 385.3 18 389.7 18.9C397.4 20.4 404.6 27 404.9 33.3C405 35.2 404.2 36.9 402.3 37.2C400 37.7 399.2 35 395.9 35.6C394.2 35.9 390.4 37.6 388.3 38.6L387.1 36.8C389.2 35.6 393.8 32.7 395.1 31.4C396.3 30.2 396.3 29.3 395.2 27.8C391.2 22.1 383.5 21.5 376.6 21.9Z" fill="#19315A"/>
<path d="M435.9 6.2H500.8V9.1H435.9V6.2ZM436 25.3H501V28.2H436V25.3ZM496.9 6.2H495.9L499.5 2.1L507.7 8.3C507 9.1 505.4 9.9 503.4 10.3V31.1C503.3 31.7 500 33.2 497.9 33.2H496.9V6.2ZM432.8 6.2V5.2V2.8L440.7 6.2H439.5V32C439.5 50.4 438.2 74.6 422 91.5L420.4 90.5C431.6 73.3 432.8 52.1 432.8 32.1V6.2ZM497.6 44.5H496.6L500.2 40.4L508.3 46.7C507.6 47.5 506.1 48.2 504.1 48.7V89.2C504 89.8 500.7 91.4 498.5 91.4H497.6V44.5ZM447.3 81.8H501.5V84.7H447.3V81.8ZM447.3 62.9H501.5V65.9H447.3V62.9ZM444.3 44.5V41.3L451.2 44.5H501.7V47.4H450.7V89.3C450.7 90 448 91.6 445.4 91.6H444.3V44.5ZM470.6 30.5L480.2 31.5C479.9 32.8 479.1 33.7 477 34V84.1H470.6V30.5Z" fill="#19315A"/>
<path d="M536.4 9.6L537.8 8.1C540.2 9.2 541.5 10 543.1 11.1C545.2 12.7 550 17.6 550 22C550 24.3 548.4 27.1 546.9 30.2C544 36.7 540.3 46.4 540.3 55.1C540.3 60.7 541.4 64.4 542.5 66.6C543.3 68.2 544 68.2 544.9 66.7C546.5 63.7 551.1 52.6 553.9 45.7L556.2 46.7C553.7 53.6 550.2 63.9 549.2 67.3C548.5 69.6 548 71.8 548 74C548 77 549.5 78.3 549.5 81.6C549.5 83.4 548.3 84.4 546.6 84.4C544.6 84.4 543.1 82.8 541.8 80.8C539.1 76.4 535.8 68.8 535.8 55.7C535.8 43 542.4 27.4 542.4 20.4C542.4 16.7 540.1 13.6 536.4 9.6ZM562.4 29.2L563.8 27.5C569.2 31.2 573.7 32.9 579.2 32.9C586.7 32.9 596.8 30.3 602.1 28.1C606 26.6 607.1 25.5 607.9 25.5C609.9 25.5 613 26.5 613 28.5C613 30.1 612.2 31 610.1 31.9C604.4 34.5 591.8 38.4 579 38.4C573.1 38.4 567.6 36.1 562.4 29.2ZM580.6 11.2L580.4 9.1C582.5 8.3 585.9 7.4 587.8 7.4C591.6 7.4 597.8 10.1 597.8 12.7C597.8 14.3 596.3 16.1 596.2 19.6C596.1 22.8 596.3 28.8 596.6 34.2C597.1 44.7 598.6 62.1 593.9 71.9C589.3 81.8 580.8 86.6 570.2 90.3L569.1 88.2C578 83.4 584.4 78.5 588.2 69C592 60 591.1 45 590.6 35.1C590.3 28.8 589.8 18.8 589.5 15.4C589.2 13.3 588.6 12.7 587.2 12.3C585.5 11.7 582.8 11.5 580.6 11.2Z" fill="#19315A"/>
</svg>
