<svg width="510" height="92" viewBox="0 0 510 92" fill="none" xmlns="http://www.w3.org/2000/svg">
<path d="M28.3 7.5H76.9V10.4H29.2L28.3 7.5ZM27.6 38.8H59.6L64 33.2C64 33.2 68.9 37.2 72 40.2C71.7 41.2 70.8 41.7 69.4 41.7H28.4L27.6 38.8ZM46.3 13L56.3 14.2C56 15.5 55.1 16.5 52.7 16.8V76C52.7 76.8 49.9 78.3 47.5 78.3H46.3V13ZM73.7 7.5H72.7L76.6 3.4L84.4 10.1C83.8 10.8 82.4 11.5 80.2 11.8C79.3 30.9 79.7 60.3 85.8 67.9C86.6 68.8 87 68.6 87.4 67.4C88.5 64.1 89.4 60.7 90.3 57.3L91.6 57.5L90.1 71.8C91.9 74.9 92.4 76.9 91.4 77.9C89.2 79.9 85.4 78.1 82.8 74.9C73.4 64.5 73.4 34.2 73.7 7.5ZM21.8 73.8C28.8 81.8 36.3 83 53.5 83C65.2 83 80.9 83 92.8 82.6V84C90 84.5 88.3 86.4 87.9 89.5C78.1 89.5 64.6 89.5 53.5 89.5C35.4 89.5 27.4 87.1 20.5 75.7C16.3 80.1 9.9 86.2 5.9 89.4C6.1 90.7 5.6 91.4 4.7 91.9L0 83.4C5.4 81.1 15 76 21.8 71.9V73.8ZM21.8 47V73.4L15.6 77.4V46H1L0.4 43H14.2L18.1 37.9L26.7 45.1C26 45.8 24.5 46.6 21.8 47ZM5.8 3.4C30 11.5 24.8 27.6 17.2 22.4C15.7 16.3 9.7 8.7 4.7 4.2L5.8 3.4Z" fill="#19315A"/>
<path d="M165.9 51.4C198.3 58.9 197.1 74.9 188.9 71.6C184.5 65.3 173 56.9 165.1 52.6L165.9 51.4ZM133 13.3H182.7L187.5 7.3C187.5 7.3 192.9 11.5 196.3 14.6C196.1 15.7 195.1 16.2 193.7 16.2H133.8L133 13.3ZM182.8 26.1H181.8L185.3 22.1L193.4 28.2C192.7 29 191.1 29.8 189.1 30.2V48.4C189.1 49 185.8 50.5 183.7 50.5H182.8V26.1ZM141.4 43.3H186.2V46.2H141.4V43.3ZM138.2 26.1V23L145.2 26.1H186V29H144.6V49.6C144.6 50.1 141.8 51.6 139.2 51.6H138.2V26.1ZM160.2 0L170.3 1.1C170.1 2.5 169.2 3.5 166.6 3.9V77.6C166.6 78.6 163.9 80 161.6 80H160.2V0ZM157.6 43.3H165V44.9C158 57.2 146 66.9 131.2 73.5L130.1 72C142.2 64.8 152 54.3 157.6 43.3ZM126.8 73.8C133.8 81.8 141.4 83 158.6 83C170.3 83 186.1 83 198.1 82.6V84C195.2 84.5 193.5 86.4 193.1 89.5C183.3 89.5 169.8 89.5 158.6 89.5C140.5 89.5 132.5 87.1 125.5 75.7C121.3 80.1 114.9 86.2 110.9 89.4C111.1 90.7 110.6 91.4 109.7 91.9L105 83.4C110.4 81.1 120 76 126.8 71.9V73.8ZM126.8 47V73.4L120.6 77.4V46H106L105.4 43H119.2L123.1 37.9L131.7 45.1C131 45.8 129.5 46.6 126.8 47ZM110.1 3.4C134.8 11.4 129.8 27.5 122.2 22.3C120.5 16.3 114.2 8.7 109.1 4.2L110.1 3.4Z" fill="#19315A"/>
<path d="M210.8 21H248.4L253.1 15.1C253.1 15.1 258.3 19.4 261.6 22.4C261.3 23.5 260.4 24 258.9 24H211.6L210.8 21ZM231.8 0.599998L241.8 1.6C241.7 3 240.7 4 238.2 4.4V22.3H231.8V0.599998ZM241.7 21H249.3C245.8 51.5 236.3 75.6 209.8 91.6L208.8 90.4C230.8 73.2 239.6 49.3 241.7 21ZM217.1 34.6C257.6 59 253.7 83.3 244.6 76.4C241.6 63.1 227.1 45.8 215.8 35.6L217.1 34.6ZM254.8 27.2H291.3L295.7 21.2C295.7 21.2 300.7 25.5 303.6 28.5C303.3 29.6 302.5 30.1 301.1 30.1H255.6L254.8 27.2ZM283.3 1.6L293.5 2.8C293.2 4.2 292.2 5.2 289.8 5.5V82.1C289.8 87.5 288.7 91 279 92C278.7 89.8 278.1 88.1 276.7 87C275 85.9 272.3 85.1 267.6 84.5V82.9C267.6 82.9 278.6 83.7 280.8 83.7C282.7 83.7 283.3 83.1 283.3 81.4V1.6ZM260.6 37.5C280.7 50.8 273.7 67.1 267.1 60.6C267.2 53.3 263.1 44 259.3 38.1L260.6 37.5Z" fill="#19315A"/>
<path d="M358.8 23.5C385.7 30.1 382.7 47.4 374.9 43.1C372.7 36.5 364.5 28.6 357.8 24.4L358.8 23.5ZM354.2 35.8L363.7 36.9C363.6 38.2 362.7 39.2 360.6 39.6V81.5C360.6 83.3 361.1 83.9 364.9 83.9H374.5C378.8 83.9 382.1 83.9 383.5 83.7C384.6 83.6 385 83.3 385.5 82.4C386.3 80.7 387.4 74.5 388.6 68.3H389.8L390.1 82.9C392.4 83.7 393 84.5 393 85.8C393 88.8 389.6 89.9 374.3 89.9H363.8C355.9 89.9 354.2 88.2 354.2 83V35.8ZM342.5 44.9H344.3C347.9 58.4 344.7 68.1 341.4 72.3C339.3 75 335.5 76.2 333.8 74.2C332.5 72.4 333.4 70.1 335.2 68.3C339.2 64.3 342.9 54.4 342.5 44.9ZM360.4 0.599998L370.7 1.6C370.5 3 369.5 4 367 4.4V16.9H360.4V0.599998ZM328.6 15.5H393.3L398.3 9.3C398.3 9.3 403.8 13.8 407.2 16.9C407 18 406 18.5 404.6 18.5H328.6V15.5ZM325.1 15.5V14.5V12.2L332.8 15.5H331.6V39.7C331.6 55.8 330.6 77.1 316.4 91.8L315 90.8C324.2 75.8 325.1 57.1 325.1 39.8V15.5ZM389.5 44C414.9 58.3 407.4 79.9 400.7 72.6C399.8 65.2 396.7 52.8 388.4 45L389.5 44Z" fill="#19315A"/>
<path d="M493.1 44.7C495.1 47.2 496.2 49.6 497.6 49.6C499.1 49.6 500 48.6 500 46.9C500.1 44.9 499.1 43.2 496.7 40.9C494.2 38.6 490.2 36.3 485.2 34.2L483.9 35.9C488.2 39 490.9 42.2 493.1 44.7ZM502 37.3C504.1 39.8 505.2 42.1 506.8 42.1C508.2 42.1 509.1 41.3 509.1 39.6C509.1 37.4 508 35.6 505.4 33.4C503 31.3 499.1 29.5 494 27.5L492.8 29.4C497.2 32.4 499.7 34.8 502 37.3ZM423.8 22.1C425.2 24.7 427.9 27.1 430.1 27.1C435.3 27.1 454.6 21.3 471.1 17.6C482.6 14.8 490.4 13.5 493.8 13.5C496.4 13.5 499.3 13.8 500.9 14.6C503.1 15.6 503.9 16.6 503.9 18C503.9 19.4 502.7 20.6 500.5 20.6C498.6 20.6 495.6 20.3 491.9 20.3C487.1 20.3 480.1 21 475.1 24.1C470.6 26.8 460.6 36.1 460.6 56.1C460.6 66.9 465.1 71.5 469.1 73.9C475.6 77.8 484.4 77.3 488.5 77.3C490.9 77.3 494.2 79 494.2 81.4C494.2 83.8 491.5 84.7 487 84.7C481.2 84.7 471.3 84.3 464.5 79.1C458.2 74.5 455 68.6 455 57.2C455 45.4 458.6 32.2 469.9 23.3C470.6 22.8 470.5 22.2 469.4 22.5C458.2 25.2 444 29.9 438 32.7C436 33.6 434 35.2 431.9 35.2C428.2 35.2 423.2 30.8 422.3 27.3C421.9 25.8 422 24.3 422 22.7L423.8 22.1Z" fill="#19315A"/>
</svg>
