<svg width="280" height="58" viewBox="0 0 280 58" fill="none" xmlns="http://www.w3.org/2000/svg">
<rect x="0.5" y="0.5" width="279" height="57" stroke="white"/>
<path d="M46.5 15.928C46.24 15.928 46.0103 15.8413 45.811 15.668C45.6117 15.486 45.512 15.2477 45.512 14.953C45.512 14.6583 45.6117 14.4243 45.811 14.251C46.0103 14.069 46.24 13.978 46.5 13.978C46.76 13.978 46.9897 14.069 47.189 14.251C47.3883 14.4243 47.488 14.6583 47.488 14.953C47.488 15.2477 47.3883 15.486 47.189 15.668C46.9897 15.8413 46.76 15.928 46.5 15.928ZM46.5 22.298C46.24 22.298 46.0103 22.2113 45.811 22.038C45.6117 21.856 45.512 21.6177 45.512 21.323C45.512 21.0197 45.6117 20.7813 45.811 20.608C46.0103 20.426 46.24 20.335 46.5 20.335C46.76 20.335 46.9897 20.426 47.189 20.608C47.3883 20.7813 47.488 21.0197 47.488 21.323C47.488 21.6177 47.3883 21.856 47.189 22.038C46.9897 22.2113 46.76 22.298 46.5 22.298ZM56.367 17.215V21.817H55.431V18.125H53.546V17.215H56.367ZM56.367 21.414C56.679 21.8993 57.1123 22.259 57.667 22.493C58.2217 22.7183 58.8803 22.8483 59.643 22.883C60.007 22.8917 60.4447 22.9003 60.956 22.909C61.476 22.909 62.022 22.909 62.594 22.909C63.166 22.9003 63.7163 22.8873 64.245 22.87C64.7823 22.8527 65.2503 22.831 65.649 22.805C65.6143 22.8743 65.5753 22.9653 65.532 23.078C65.4887 23.1907 65.4453 23.3077 65.402 23.429C65.3673 23.5503 65.3413 23.663 65.324 23.767C64.96 23.7757 64.531 23.7843 64.037 23.793C63.5517 23.8103 63.036 23.819 62.49 23.819C61.9527 23.8277 61.4327 23.8277 60.93 23.819C60.436 23.8103 60.007 23.8017 59.643 23.793C58.8023 23.7583 58.0787 23.6197 57.472 23.377C56.8653 23.1343 56.3583 22.753 55.951 22.233C55.6217 22.519 55.2837 22.8007 54.937 23.078C54.5903 23.364 54.2307 23.65 53.858 23.936L53.377 22.974C53.6977 22.766 54.0487 22.5277 54.43 22.259C54.8113 21.9817 55.1753 21.7 55.522 21.414H56.367ZM53.754 12.977L54.443 12.379C54.7203 12.5697 55.002 12.7907 55.288 13.042C55.5827 13.2847 55.8513 13.5317 56.094 13.783C56.3367 14.0257 56.5273 14.2597 56.666 14.485L55.925 15.161C55.795 14.9357 55.6087 14.6973 55.366 14.446C55.132 14.186 54.8763 13.9303 54.599 13.679C54.3217 13.419 54.04 13.185 53.754 12.977ZM58.967 14.264L59.578 13.705C59.994 13.8523 60.4317 14.0257 60.891 14.225C61.359 14.4157 61.8053 14.6107 62.23 14.81C62.6633 15.0093 63.023 15.1957 63.309 15.369L62.659 15.993C62.3903 15.8197 62.0437 15.629 61.619 15.421C61.203 15.213 60.761 15.0093 60.293 14.81C59.825 14.602 59.383 14.42 58.967 14.264ZM57.719 15.343H64.44V16.097H58.642V22.077H57.719V15.343ZM63.985 15.343H64.921V21.102C64.921 21.3447 64.8907 21.531 64.83 21.661C64.7693 21.7823 64.6523 21.882 64.479 21.96C64.3057 22.0293 64.076 22.0727 63.79 22.09C63.5127 22.0987 63.153 22.103 62.711 22.103C62.6937 21.9817 62.659 21.8473 62.607 21.7C62.555 21.544 62.4987 21.414 62.438 21.31C62.75 21.3187 63.0273 21.323 63.27 21.323C63.5213 21.323 63.686 21.323 63.764 21.323C63.8507 21.3143 63.907 21.2927 63.933 21.258C63.9677 21.2233 63.985 21.1713 63.985 21.102V15.343ZM57.732 12.613H64.219V13.393H57.732V12.613ZM58.226 17.241H64.349V17.969H58.226V17.241ZM58.226 19.152H64.349V19.919H58.226V19.152ZM60.839 15.655H61.723V22.025H60.839V15.655ZM63.894 12.613H64.115L64.31 12.561L64.921 13.042C64.6263 13.3107 64.2927 13.5793 63.92 13.848C63.5473 14.108 63.1573 14.3507 62.75 14.576C62.3427 14.8013 61.9397 14.9963 61.541 15.161C61.4803 15.0743 61.398 14.9747 61.294 14.862C61.19 14.7493 61.099 14.6583 61.021 14.589C61.385 14.4417 61.749 14.2683 62.113 14.069C62.477 13.8697 62.815 13.6617 63.127 13.445C63.439 13.2197 63.6947 13.003 63.894 12.795V12.613ZM72.162 18.411H73.163V24.04H72.162V18.411ZM70.069 16.617V17.891H74.996V16.617H70.069ZM69.133 15.876H75.984V18.632H69.133V15.876ZM67.976 19.711H76.673V20.595H68.951V23.455H67.976V19.711ZM76.192 19.711H77.18V22.441C77.18 22.6923 77.1453 22.8873 77.076 23.026C77.0153 23.1733 76.881 23.286 76.673 23.364C76.465 23.4333 76.192 23.4723 75.854 23.481C75.516 23.4983 75.0957 23.507 74.593 23.507C74.567 23.377 74.5193 23.2297 74.45 23.065C74.3893 22.9003 74.3243 22.753 74.255 22.623C74.515 22.6317 74.7577 22.6403 74.983 22.649C75.217 22.649 75.4163 22.649 75.581 22.649C75.7457 22.649 75.8627 22.649 75.932 22.649C76.036 22.6317 76.1053 22.61 76.14 22.584C76.1747 22.558 76.192 22.506 76.192 22.428V19.711ZM72.084 12.067H73.072V14.446H72.084V12.067ZM67.118 14.095H77.973V16.89H77.011V14.953H68.054V16.89H67.118V14.095ZM68.184 12.561L69.068 12.197C69.276 12.431 69.4797 12.691 69.679 12.977C69.887 13.263 70.0473 13.51 70.16 13.718L69.237 14.16C69.1417 13.9347 68.99 13.6703 68.782 13.367C68.5827 13.0637 68.3833 12.795 68.184 12.561ZM75.919 12.184L76.933 12.535C76.7163 12.8123 76.491 13.094 76.257 13.38C76.023 13.6573 75.8107 13.8957 75.62 14.095L74.814 13.77C74.944 13.6313 75.074 13.4667 75.204 13.276C75.3427 13.0853 75.4727 12.8947 75.594 12.704C75.724 12.5047 75.8323 12.3313 75.919 12.184ZM87.723 13.029C87.4977 13.445 87.2073 13.8783 86.852 14.329C86.5053 14.771 86.1153 15.1957 85.682 15.603C85.2573 16.0017 84.8067 16.3527 84.33 16.656C84.278 16.5347 84.2 16.4003 84.096 16.253C84.0007 16.097 83.9097 15.967 83.823 15.863C84.291 15.577 84.746 15.2303 85.188 14.823C85.63 14.407 86.0243 13.9607 86.371 13.484C86.7263 13.0073 87.008 12.5437 87.216 12.093H88.139C88.4337 12.5783 88.7717 13.055 89.153 13.523C89.543 13.9823 89.9547 14.3983 90.388 14.771C90.83 15.1437 91.2677 15.4557 91.701 15.707C91.6143 15.8197 91.519 15.9583 91.415 16.123C91.3197 16.2877 91.233 16.435 91.155 16.565C90.7303 16.2877 90.3013 15.9583 89.868 15.577C89.4347 15.187 89.0317 14.771 88.659 14.329C88.295 13.887 87.983 13.4537 87.723 13.029ZM87.996 15.434L88.841 15.772C88.5723 16.1273 88.256 16.4697 87.892 16.799C87.528 17.1197 87.1423 17.423 86.735 17.709C86.3363 17.9863 85.9377 18.229 85.539 18.437C85.461 18.3417 85.3613 18.2377 85.24 18.125C85.1187 18.0123 85.0017 17.917 84.889 17.839C85.2703 17.657 85.6517 17.436 86.033 17.176C86.423 16.916 86.787 16.6387 87.125 16.344C87.4717 16.0407 87.762 15.7373 87.996 15.434ZM89.088 17.345L89.946 17.709C89.608 18.1597 89.205 18.5887 88.737 18.996C88.2777 19.3947 87.7793 19.763 87.242 20.101C86.7047 20.439 86.1587 20.725 85.604 20.959C85.5347 20.855 85.4393 20.738 85.318 20.608C85.2053 20.478 85.0883 20.3697 84.967 20.283C85.4957 20.075 86.02 19.8193 86.54 19.516C87.06 19.2127 87.541 18.8747 87.983 18.502C88.425 18.1293 88.7933 17.7437 89.088 17.345ZM90.271 19.295L91.142 19.685C90.5353 20.7163 89.6947 21.6047 88.62 22.35C87.554 23.0867 86.3407 23.6587 84.98 24.066C84.9107 23.936 84.8197 23.793 84.707 23.637C84.5943 23.4897 84.4817 23.3597 84.369 23.247C85.2443 23.013 86.059 22.7053 86.813 22.324C87.5757 21.9427 88.2517 21.5007 88.841 20.998C89.4303 20.4867 89.907 19.919 90.271 19.295ZM80.105 16.019H83.914V16.786H80.105V16.019ZM80.157 12.535H83.862V13.315H80.157V12.535ZM80.105 17.748H83.914V18.528H80.105V17.748ZM79.494 14.238H84.317V15.057H79.494V14.238ZM80.547 19.503H83.927V23.299H80.547V22.493H83.069V20.322H80.547V19.503ZM80.092 19.503H80.95V23.897H80.092V19.503ZM95.874 15.304H104.311V16.084H95.874V15.304ZM95.926 16.721L96.472 16.279C96.706 16.4263 96.953 16.604 97.213 16.812C97.4817 17.02 97.6897 17.202 97.837 17.358L97.278 17.865C97.1307 17.7003 96.927 17.5097 96.667 17.293C96.4157 17.0763 96.1687 16.8857 95.926 16.721ZM101.477 21.804L102.205 21.414C102.448 21.6047 102.699 21.8213 102.959 22.064C103.219 22.3067 103.462 22.545 103.687 22.779C103.912 23.013 104.094 23.2253 104.233 23.416L103.466 23.871C103.336 23.6717 103.163 23.4507 102.946 23.208C102.729 22.9653 102.491 22.7227 102.231 22.48C101.98 22.2287 101.728 22.0033 101.477 21.804ZM97.876 19.646V20.465H102.049V19.646H97.876ZM97.876 18.229V19.035H102.049V18.229H97.876ZM97.031 17.579H102.92V21.115H97.031V17.579ZM97.291 21.401L98.175 21.648C97.915 22.064 97.59 22.467 97.2 22.857C96.81 23.2383 96.4243 23.559 96.043 23.819C95.9997 23.767 95.9303 23.702 95.835 23.624C95.7483 23.546 95.6573 23.4723 95.562 23.403C95.4753 23.3337 95.393 23.2773 95.315 23.234C95.6963 23 96.0603 22.7227 96.407 22.402C96.7623 22.0813 97.057 21.7477 97.291 21.401ZM103.466 16.188L104.077 16.617C103.869 16.825 103.644 17.0287 103.401 17.228C103.158 17.4273 102.937 17.592 102.738 17.722L102.205 17.345C102.413 17.189 102.638 16.9983 102.881 16.773C103.124 16.5477 103.319 16.3527 103.466 16.188ZM101.204 15.59C101.429 15.9973 101.72 16.3873 102.075 16.76C102.43 17.124 102.825 17.4533 103.258 17.748C103.7 18.034 104.146 18.2637 104.597 18.437C104.502 18.5237 104.398 18.6363 104.285 18.775C104.172 18.905 104.081 19.0263 104.012 19.139C103.544 18.9223 103.085 18.645 102.634 18.307C102.192 17.969 101.785 17.592 101.412 17.176C101.039 16.7513 100.727 16.3093 100.476 15.85L101.204 15.59ZM99.475 20.725H100.424V23.104C100.424 23.3293 100.394 23.5027 100.333 23.624C100.272 23.754 100.147 23.8493 99.956 23.91C99.7827 23.9793 99.553 24.0183 99.267 24.027C98.9897 24.0443 98.6387 24.053 98.214 24.053C98.188 23.9317 98.1447 23.7973 98.084 23.65C98.0233 23.5027 97.9627 23.3683 97.902 23.247C98.2227 23.2557 98.5087 23.26 98.76 23.26C99.0113 23.26 99.1803 23.26 99.267 23.26C99.345 23.26 99.397 23.2427 99.423 23.208C99.4577 23.182 99.475 23.1387 99.475 23.078V20.725ZM99.293 14.186L100.216 14.303C100.025 14.9183 99.7437 15.525 99.371 16.123C99.007 16.7123 98.539 17.2713 97.967 17.8C97.4037 18.32 96.7233 18.7793 95.926 19.178C95.8653 19.074 95.7743 18.957 95.653 18.827C95.5317 18.697 95.419 18.6017 95.315 18.541C96.0777 18.1857 96.7233 17.7697 97.252 17.293C97.7893 16.8163 98.227 16.3093 98.565 15.772C98.903 15.2347 99.1457 14.706 99.293 14.186ZM94.86 13.289H104.467V14.134H94.86V13.289ZM94.379 13.289H95.289V17.475C95.289 17.9777 95.2673 18.5193 95.224 19.1C95.1807 19.672 95.094 20.2527 94.964 20.842C94.8427 21.4227 94.6563 21.9903 94.405 22.545C94.1623 23.0997 93.8373 23.6023 93.43 24.053C93.3867 23.9837 93.3217 23.9057 93.235 23.819C93.1483 23.741 93.0617 23.6587 92.975 23.572C92.8883 23.494 92.8103 23.4377 92.741 23.403C93.1137 22.9783 93.4083 22.519 93.625 22.025C93.8503 21.531 94.015 21.024 94.119 20.504C94.2317 19.984 94.301 19.4683 94.327 18.957C94.3617 18.437 94.379 17.943 94.379 17.475V13.289ZM98.643 12.08H99.657V13.744H98.643V12.08ZM92.572 14.693L93.3 14.407C93.508 14.8143 93.6943 15.252 93.859 15.72C94.0237 16.188 94.1277 16.5867 94.171 16.916L93.391 17.267C93.365 17.033 93.3087 16.773 93.222 16.487C93.144 16.1923 93.0487 15.889 92.936 15.577C92.8233 15.265 92.702 14.9703 92.572 14.693ZM92.377 19.477C92.6717 19.3383 93.014 19.1693 93.404 18.97C93.8027 18.762 94.2143 18.541 94.639 18.307L94.86 19.061C94.5047 19.2863 94.145 19.5073 93.781 19.724C93.417 19.9407 93.0617 20.1443 92.715 20.335L92.377 19.477Z" fill="white"/>
<circle cx="32.5" cy="17.5" r="7.5" fill="white"/>
<path d="M156.5 15.928C156.24 15.928 156.01 15.8413 155.811 15.668C155.612 15.486 155.512 15.2477 155.512 14.953C155.512 14.6583 155.612 14.4243 155.811 14.251C156.01 14.069 156.24 13.978 156.5 13.978C156.76 13.978 156.99 14.069 157.189 14.251C157.388 14.4243 157.488 14.6583 157.488 14.953C157.488 15.2477 157.388 15.486 157.189 15.668C156.99 15.8413 156.76 15.928 156.5 15.928ZM156.5 22.298C156.24 22.298 156.01 22.2113 155.811 22.038C155.612 21.856 155.512 21.6177 155.512 21.323C155.512 21.0197 155.612 20.7813 155.811 20.608C156.01 20.426 156.24 20.335 156.5 20.335C156.76 20.335 156.99 20.426 157.189 20.608C157.388 20.7813 157.488 21.0197 157.488 21.323C157.488 21.6177 157.388 21.856 157.189 22.038C156.99 22.2113 156.76 22.298 156.5 22.298ZM165.964 15.85H173.036V16.747H165.964V15.85ZM163.728 18.242H175.259V19.165H163.728V18.242ZM167.147 18.879H168.2C168.131 19.5117 168.018 20.0967 167.862 20.634C167.715 21.1713 167.489 21.6567 167.186 22.09C166.891 22.5233 166.488 22.9047 165.977 23.234C165.466 23.5633 164.816 23.8407 164.027 24.066C163.992 23.9793 163.94 23.884 163.871 23.78C163.81 23.676 163.741 23.572 163.663 23.468C163.594 23.3727 163.52 23.2947 163.442 23.234C164.179 23.052 164.777 22.8223 165.236 22.545C165.695 22.2677 166.055 21.947 166.315 21.583C166.575 21.219 166.766 20.8117 166.887 20.361C167.008 19.9017 167.095 19.4077 167.147 18.879ZM170.436 18.801H171.424V22.467C171.424 22.6577 171.459 22.779 171.528 22.831C171.606 22.883 171.779 22.909 172.048 22.909C172.117 22.909 172.23 22.909 172.386 22.909C172.551 22.909 172.733 22.909 172.932 22.909C173.131 22.909 173.318 22.909 173.491 22.909C173.673 22.909 173.803 22.909 173.881 22.909C174.054 22.909 174.18 22.87 174.258 22.792C174.345 22.714 174.405 22.5537 174.44 22.311C174.475 22.0597 174.501 21.6827 174.518 21.18C174.587 21.2407 174.674 21.297 174.778 21.349C174.882 21.3923 174.99 21.4357 175.103 21.479C175.216 21.5137 175.315 21.544 175.402 21.57C175.367 22.168 175.302 22.6317 175.207 22.961C175.112 23.2817 174.969 23.5027 174.778 23.624C174.587 23.7453 174.314 23.806 173.959 23.806C173.898 23.806 173.773 23.806 173.582 23.806C173.391 23.806 173.183 23.806 172.958 23.806C172.733 23.806 172.525 23.806 172.334 23.806C172.143 23.806 172.018 23.806 171.957 23.806C171.55 23.806 171.238 23.767 171.021 23.689C170.804 23.6197 170.653 23.4853 170.566 23.286C170.479 23.0953 170.436 22.8267 170.436 22.48V18.801ZM168.954 12.08H169.981V14.147H168.954V12.08ZM164.04 13.471H174.973V16.227H173.933V14.407H165.028V16.227H164.04V13.471ZM182.448 13.029C182.188 13.419 181.863 13.8307 181.473 14.264C181.092 14.6887 180.667 15.1133 180.199 15.538C179.731 15.9627 179.233 16.37 178.704 16.76C178.184 17.15 177.651 17.5053 177.105 17.826C177.036 17.7133 176.94 17.5833 176.819 17.436C176.706 17.28 176.594 17.1543 176.481 17.059C177.235 16.643 177.959 16.1533 178.652 15.59C179.354 15.0267 179.987 14.4373 180.55 13.822C181.113 13.2067 181.564 12.6173 181.902 12.054H182.89C183.228 12.5393 183.618 13.016 184.06 13.484C184.502 13.952 184.974 14.3983 185.477 14.823C185.98 15.2477 186.491 15.6377 187.011 15.993C187.54 16.3483 188.055 16.6517 188.558 16.903C188.437 17.0243 188.32 17.163 188.207 17.319C188.094 17.4663 187.995 17.6137 187.908 17.761C187.414 17.4663 186.903 17.1327 186.374 16.76C185.854 16.3873 185.351 15.993 184.866 15.577C184.381 15.1523 183.93 14.7233 183.514 14.29C183.098 13.8567 182.743 13.4363 182.448 13.029ZM178.054 19.776H186.92V20.647H178.054V19.776ZM178.639 16.877H186.426V17.748H178.639V16.877ZM176.988 22.792H188.077V23.676H176.988V22.792ZM181.954 17.241H182.968V23.286H181.954V17.241ZM195.084 17.644H196.085V22.818C196.085 23.1213 196.042 23.3467 195.955 23.494C195.868 23.65 195.704 23.7627 195.461 23.832C195.236 23.91 194.928 23.9577 194.538 23.975C194.157 23.9923 193.676 24.001 193.095 24.001C193.069 23.8537 193.017 23.689 192.939 23.507C192.87 23.3337 192.8 23.182 192.731 23.052C193.026 23.0607 193.312 23.065 193.589 23.065C193.875 23.0737 194.122 23.0737 194.33 23.065C194.538 23.065 194.685 23.065 194.772 23.065C194.893 23.0563 194.976 23.0347 195.019 23C195.062 22.9653 195.084 22.9003 195.084 22.805V17.644ZM190.911 12.782H199.127V13.692H190.911V12.782ZM198.763 12.782H199.01L199.231 12.73L199.933 13.263C199.578 13.627 199.17 13.9953 198.711 14.368C198.26 14.7407 197.792 15.0917 197.307 15.421C196.822 15.7503 196.358 16.0363 195.916 16.279C195.873 16.2097 195.812 16.136 195.734 16.058C195.665 15.98 195.591 15.902 195.513 15.824C195.435 15.7373 195.366 15.6723 195.305 15.629C195.712 15.4123 196.133 15.1523 196.566 14.849C197.008 14.5457 197.424 14.2337 197.814 13.913C198.204 13.5837 198.52 13.2803 198.763 13.003V12.782ZM189.689 16.929H200.57V17.865H189.689V16.929ZM192.692 15.2L193.212 14.472C193.585 14.628 193.988 14.8013 194.421 14.992C194.863 15.174 195.301 15.3603 195.734 15.551C196.167 15.7417 196.575 15.928 196.956 16.11C197.346 16.292 197.68 16.4567 197.957 16.604L197.424 17.436C197.164 17.2887 196.843 17.1197 196.462 16.929C196.081 16.7383 195.673 16.5433 195.24 16.344C194.807 16.136 194.369 15.9367 193.927 15.746C193.494 15.5467 193.082 15.3647 192.692 15.2ZM200.232 16.929H200.427L200.609 16.864L201.389 17.215C201.051 17.787 200.678 18.3633 200.271 18.944C199.864 19.5247 199.461 20.01 199.062 20.4L198.256 19.919C198.473 19.685 198.702 19.412 198.945 19.1C199.188 18.788 199.417 18.463 199.634 18.125C199.859 17.7783 200.059 17.4447 200.232 17.124V16.929ZM208.656 17.657L209.449 17.254C209.692 17.566 209.934 17.8997 210.177 18.255C210.42 18.6103 210.636 18.9657 210.827 19.321C211.026 19.6677 211.178 19.9797 211.282 20.257L210.411 20.712C210.324 20.4347 210.186 20.1183 209.995 19.763C209.813 19.4077 209.605 19.048 209.371 18.684C209.137 18.3113 208.899 17.969 208.656 17.657ZM208.721 14.433H213.674V15.356H208.721V14.433ZM213.271 14.433H214.22C214.22 14.433 214.22 14.4677 214.22 14.537C214.22 14.5977 214.22 14.667 214.22 14.745C214.22 14.823 214.216 14.8837 214.207 14.927C214.155 16.4003 214.099 17.644 214.038 18.658C213.986 19.672 213.921 20.5083 213.843 21.167C213.774 21.817 213.691 22.324 213.596 22.688C213.501 23.052 213.384 23.312 213.245 23.468C213.106 23.6587 212.955 23.7887 212.79 23.858C212.625 23.9273 212.422 23.975 212.179 24.001C211.962 24.027 211.668 24.0357 211.295 24.027C210.922 24.0183 210.541 24.0053 210.151 23.988C210.142 23.8407 210.108 23.6717 210.047 23.481C209.995 23.299 209.926 23.143 209.839 23.013C210.272 23.0477 210.671 23.0693 211.035 23.078C211.408 23.0867 211.672 23.091 211.828 23.091C211.967 23.091 212.079 23.078 212.166 23.052C212.253 23.026 212.331 22.9697 212.4 22.883C212.513 22.7703 212.612 22.5407 212.699 22.194C212.786 21.8387 212.864 21.3403 212.933 20.699C213.002 20.0577 213.063 19.2387 213.115 18.242C213.167 17.2453 213.219 16.045 213.271 14.641V14.433ZM209.215 12.067L210.203 12.288C210.021 12.912 209.8 13.5273 209.54 14.134C209.289 14.732 209.011 15.291 208.708 15.811C208.405 16.331 208.088 16.7903 207.759 17.189C207.69 17.137 207.603 17.0763 207.499 17.007C207.395 16.929 207.287 16.8553 207.174 16.786C207.061 16.708 206.962 16.6473 206.875 16.604C207.222 16.24 207.538 15.8197 207.824 15.343C208.119 14.8577 208.383 14.3333 208.617 13.77C208.851 13.2067 209.05 12.639 209.215 12.067ZM204.535 12.08L205.406 12.418C205.25 12.73 205.077 13.0593 204.886 13.406C204.695 13.7527 204.509 14.0863 204.327 14.407C204.145 14.719 203.967 14.9963 203.794 15.239L203.118 14.94C203.283 14.6887 203.452 14.3983 203.625 14.069C203.798 13.731 203.967 13.3887 204.132 13.042C204.297 12.6867 204.431 12.366 204.535 12.08ZM206.108 13.562L206.966 13.926C206.663 14.42 206.325 14.94 205.952 15.486C205.588 16.0233 205.22 16.5477 204.847 17.059C204.474 17.5703 204.123 18.0123 203.794 18.385L203.17 18.06C203.421 17.7653 203.681 17.4317 203.95 17.059C204.219 16.6863 204.483 16.2963 204.743 15.889C205.012 15.4817 205.263 15.0787 205.497 14.68C205.731 14.2813 205.935 13.9087 206.108 13.562ZM202.494 14.823L202.975 14.173C203.218 14.3723 203.465 14.5933 203.716 14.836C203.967 15.0787 204.197 15.3213 204.405 15.564C204.613 15.798 204.773 16.0103 204.886 16.201L204.366 16.955C204.245 16.747 204.08 16.5173 203.872 16.266C203.673 16.0147 203.452 15.7633 203.209 15.512C202.966 15.2607 202.728 15.031 202.494 14.823ZM205.692 16.578L206.42 16.266C206.611 16.552 206.793 16.8553 206.966 17.176C207.139 17.4967 207.291 17.8087 207.421 18.112C207.56 18.4153 207.659 18.6883 207.72 18.931L206.953 19.295C206.884 19.0523 206.784 18.775 206.654 18.463C206.524 18.151 206.377 17.8303 206.212 17.501C206.047 17.1717 205.874 16.864 205.692 16.578ZM202.468 17.891C203.049 17.8737 203.746 17.852 204.561 17.826C205.376 17.7913 206.212 17.7523 207.07 17.709V18.515C206.247 18.567 205.441 18.6147 204.652 18.658C203.863 18.7013 203.161 18.7403 202.546 18.775L202.468 17.891ZM206.03 19.698L206.758 19.451C206.949 19.8497 207.126 20.283 207.291 20.751C207.464 21.219 207.586 21.622 207.655 21.96L206.849 22.233C206.788 21.8863 206.68 21.479 206.524 21.011C206.368 20.5343 206.203 20.0967 206.03 19.698ZM203.183 19.516L204.015 19.659C203.928 20.2743 203.807 20.881 203.651 21.479C203.495 22.0683 203.313 22.571 203.105 22.987C203.044 22.9437 202.966 22.9003 202.871 22.857C202.784 22.8137 202.689 22.7703 202.585 22.727C202.49 22.675 202.403 22.636 202.325 22.61C202.55 22.2113 202.728 21.739 202.858 21.193C202.997 20.6383 203.105 20.0793 203.183 19.516ZM204.678 18.268H205.562V24.066H204.678V18.268ZM223.723 13.029C223.498 13.445 223.207 13.8783 222.852 14.329C222.505 14.771 222.115 15.1957 221.682 15.603C221.257 16.0017 220.807 16.3527 220.33 16.656C220.278 16.5347 220.2 16.4003 220.096 16.253C220.001 16.097 219.91 15.967 219.823 15.863C220.291 15.577 220.746 15.2303 221.188 14.823C221.63 14.407 222.024 13.9607 222.371 13.484C222.726 13.0073 223.008 12.5437 223.216 12.093H224.139C224.434 12.5783 224.772 13.055 225.153 13.523C225.543 13.9823 225.955 14.3983 226.388 14.771C226.83 15.1437 227.268 15.4557 227.701 15.707C227.614 15.8197 227.519 15.9583 227.415 16.123C227.32 16.2877 227.233 16.435 227.155 16.565C226.73 16.2877 226.301 15.9583 225.868 15.577C225.435 15.187 225.032 14.771 224.659 14.329C224.295 13.887 223.983 13.4537 223.723 13.029ZM223.996 15.434L224.841 15.772C224.572 16.1273 224.256 16.4697 223.892 16.799C223.528 17.1197 223.142 17.423 222.735 17.709C222.336 17.9863 221.938 18.229 221.539 18.437C221.461 18.3417 221.361 18.2377 221.24 18.125C221.119 18.0123 221.002 17.917 220.889 17.839C221.27 17.657 221.652 17.436 222.033 17.176C222.423 16.916 222.787 16.6387 223.125 16.344C223.472 16.0407 223.762 15.7373 223.996 15.434ZM225.088 17.345L225.946 17.709C225.608 18.1597 225.205 18.5887 224.737 18.996C224.278 19.3947 223.779 19.763 223.242 20.101C222.705 20.439 222.159 20.725 221.604 20.959C221.535 20.855 221.439 20.738 221.318 20.608C221.205 20.478 221.088 20.3697 220.967 20.283C221.496 20.075 222.02 19.8193 222.54 19.516C223.06 19.2127 223.541 18.8747 223.983 18.502C224.425 18.1293 224.793 17.7437 225.088 17.345ZM226.271 19.295L227.142 19.685C226.535 20.7163 225.695 21.6047 224.62 22.35C223.554 23.0867 222.341 23.6587 220.98 24.066C220.911 23.936 220.82 23.793 220.707 23.637C220.594 23.4897 220.482 23.3597 220.369 23.247C221.244 23.013 222.059 22.7053 222.813 22.324C223.576 21.9427 224.252 21.5007 224.841 20.998C225.43 20.4867 225.907 19.919 226.271 19.295ZM216.105 16.019H219.914V16.786H216.105V16.019ZM216.157 12.535H219.862V13.315H216.157V12.535ZM216.105 17.748H219.914V18.528H216.105V17.748ZM215.494 14.238H220.317V15.057H215.494V14.238ZM216.547 19.503H219.927V23.299H216.547V22.493H219.069V20.322H216.547V19.503ZM216.092 19.503H216.95V23.897H216.092V19.503ZM231.874 15.304H240.311V16.084H231.874V15.304ZM231.926 16.721L232.472 16.279C232.706 16.4263 232.953 16.604 233.213 16.812C233.482 17.02 233.69 17.202 233.837 17.358L233.278 17.865C233.131 17.7003 232.927 17.5097 232.667 17.293C232.416 17.0763 232.169 16.8857 231.926 16.721ZM237.477 21.804L238.205 21.414C238.448 21.6047 238.699 21.8213 238.959 22.064C239.219 22.3067 239.462 22.545 239.687 22.779C239.912 23.013 240.094 23.2253 240.233 23.416L239.466 23.871C239.336 23.6717 239.163 23.4507 238.946 23.208C238.729 22.9653 238.491 22.7227 238.231 22.48C237.98 22.2287 237.728 22.0033 237.477 21.804ZM233.876 19.646V20.465H238.049V19.646H233.876ZM233.876 18.229V19.035H238.049V18.229H233.876ZM233.031 17.579H238.92V21.115H233.031V17.579ZM233.291 21.401L234.175 21.648C233.915 22.064 233.59 22.467 233.2 22.857C232.81 23.2383 232.424 23.559 232.043 23.819C232 23.767 231.93 23.702 231.835 23.624C231.748 23.546 231.657 23.4723 231.562 23.403C231.475 23.3337 231.393 23.2773 231.315 23.234C231.696 23 232.06 22.7227 232.407 22.402C232.762 22.0813 233.057 21.7477 233.291 21.401ZM239.466 16.188L240.077 16.617C239.869 16.825 239.644 17.0287 239.401 17.228C239.158 17.4273 238.937 17.592 238.738 17.722L238.205 17.345C238.413 17.189 238.638 16.9983 238.881 16.773C239.124 16.5477 239.319 16.3527 239.466 16.188ZM237.204 15.59C237.429 15.9973 237.72 16.3873 238.075 16.76C238.43 17.124 238.825 17.4533 239.258 17.748C239.7 18.034 240.146 18.2637 240.597 18.437C240.502 18.5237 240.398 18.6363 240.285 18.775C240.172 18.905 240.081 19.0263 240.012 19.139C239.544 18.9223 239.085 18.645 238.634 18.307C238.192 17.969 237.785 17.592 237.412 17.176C237.039 16.7513 236.727 16.3093 236.476 15.85L237.204 15.59ZM235.475 20.725H236.424V23.104C236.424 23.3293 236.394 23.5027 236.333 23.624C236.272 23.754 236.147 23.8493 235.956 23.91C235.783 23.9793 235.553 24.0183 235.267 24.027C234.99 24.0443 234.639 24.053 234.214 24.053C234.188 23.9317 234.145 23.7973 234.084 23.65C234.023 23.5027 233.963 23.3683 233.902 23.247C234.223 23.2557 234.509 23.26 234.76 23.26C235.011 23.26 235.18 23.26 235.267 23.26C235.345 23.26 235.397 23.2427 235.423 23.208C235.458 23.182 235.475 23.1387 235.475 23.078V20.725ZM235.293 14.186L236.216 14.303C236.025 14.9183 235.744 15.525 235.371 16.123C235.007 16.7123 234.539 17.2713 233.967 17.8C233.404 18.32 232.723 18.7793 231.926 19.178C231.865 19.074 231.774 18.957 231.653 18.827C231.532 18.697 231.419 18.6017 231.315 18.541C232.078 18.1857 232.723 17.7697 233.252 17.293C233.789 16.8163 234.227 16.3093 234.565 15.772C234.903 15.2347 235.146 14.706 235.293 14.186ZM230.86 13.289H240.467V14.134H230.86V13.289ZM230.379 13.289H231.289V17.475C231.289 17.9777 231.267 18.5193 231.224 19.1C231.181 19.672 231.094 20.2527 230.964 20.842C230.843 21.4227 230.656 21.9903 230.405 22.545C230.162 23.0997 229.837 23.6023 229.43 24.053C229.387 23.9837 229.322 23.9057 229.235 23.819C229.148 23.741 229.062 23.6587 228.975 23.572C228.888 23.494 228.81 23.4377 228.741 23.403C229.114 22.9783 229.408 22.519 229.625 22.025C229.85 21.531 230.015 21.024 230.119 20.504C230.232 19.984 230.301 19.4683 230.327 18.957C230.362 18.437 230.379 17.943 230.379 17.475V13.289ZM234.643 12.08H235.657V13.744H234.643V12.08ZM228.572 14.693L229.3 14.407C229.508 14.8143 229.694 15.252 229.859 15.72C230.024 16.188 230.128 16.5867 230.171 16.916L229.391 17.267C229.365 17.033 229.309 16.773 229.222 16.487C229.144 16.1923 229.049 15.889 228.936 15.577C228.823 15.265 228.702 14.9703 228.572 14.693ZM228.377 19.477C228.672 19.3383 229.014 19.1693 229.404 18.97C229.803 18.762 230.214 18.541 230.639 18.307L230.86 19.061C230.505 19.2863 230.145 19.5073 229.781 19.724C229.417 19.9407 229.062 20.1443 228.715 20.335L228.377 19.477Z" fill="white"/>
<circle cx="142.5" cy="17.5" r="7" stroke="white"/>
<path d="M46.5 36.928C46.24 36.928 46.0103 36.8413 45.811 36.668C45.6117 36.486 45.512 36.2477 45.512 35.953C45.512 35.6583 45.6117 35.4243 45.811 35.251C46.0103 35.069 46.24 34.978 46.5 34.978C46.76 34.978 46.9897 35.069 47.189 35.251C47.3883 35.4243 47.488 35.6583 47.488 35.953C47.488 36.2477 47.3883 36.486 47.189 36.668C46.9897 36.8413 46.76 36.928 46.5 36.928ZM46.5 43.298C46.24 43.298 46.0103 43.2113 45.811 43.038C45.6117 42.856 45.512 42.6177 45.512 42.323C45.512 42.0197 45.6117 41.7813 45.811 41.608C46.0103 41.426 46.24 41.335 46.5 41.335C46.76 41.335 46.9897 41.426 47.189 41.608C47.3883 41.7813 47.488 42.0197 47.488 42.323C47.488 42.6177 47.3883 42.856 47.189 43.038C46.9897 43.2113 46.76 43.298 46.5 43.298ZM60.644 33.262H61.606V45.04H60.644V33.262ZM56.978 36.395H65.389V37.344H56.978V36.395ZM61.957 36.707C62.1477 37.2703 62.3773 37.838 62.646 38.41C62.9233 38.9733 63.2267 39.5193 63.556 40.048C63.894 40.5767 64.245 41.0577 64.609 41.491C64.9817 41.9243 65.3543 42.297 65.727 42.609C65.6577 42.6697 65.5753 42.7433 65.48 42.83C65.3847 42.9167 65.2937 43.0077 65.207 43.103C65.1203 43.1983 65.0467 43.2893 64.986 43.376C64.6133 43.0293 64.2407 42.6177 63.868 42.141C63.504 41.6643 63.153 41.14 62.815 40.568C62.4857 39.996 62.178 39.4023 61.892 38.787C61.6147 38.1717 61.372 37.5563 61.164 36.941L61.957 36.707ZM60.358 36.72L61.203 36.967C60.917 37.825 60.566 38.6613 60.15 39.476C59.7427 40.2907 59.2877 41.0403 58.785 41.725C58.291 42.4097 57.7753 42.986 57.238 43.454C57.186 43.3673 57.1167 43.2763 57.03 43.181C56.9433 43.0857 56.8523 42.9947 56.757 42.908C56.6703 42.8127 56.588 42.739 56.51 42.687C57.0387 42.2797 57.5457 41.7597 58.031 41.127C58.5163 40.4857 58.9583 39.7837 59.357 39.021C59.7643 38.2583 60.098 37.4913 60.358 36.72ZM56.822 33.158L57.784 33.457C57.4807 34.211 57.121 34.952 56.705 35.68C56.289 36.408 55.8383 37.0883 55.353 37.721C54.8763 38.3537 54.378 38.9127 53.858 39.398C53.8233 39.3113 53.767 39.2073 53.689 39.086C53.6197 38.956 53.546 38.8303 53.468 38.709C53.39 38.579 53.3207 38.4793 53.26 38.41C53.7453 37.9853 54.209 37.5 54.651 36.954C55.093 36.3993 55.496 35.8013 55.86 35.16C56.2327 34.51 56.5533 33.8427 56.822 33.158ZM55.392 36.616L56.341 35.654L56.354 35.68V45.014H55.392V36.616ZM74.723 34.029C74.4977 34.445 74.2073 34.8783 73.852 35.329C73.5053 35.771 73.1153 36.1957 72.682 36.603C72.2573 37.0017 71.8067 37.3527 71.33 37.656C71.278 37.5347 71.2 37.4003 71.096 37.253C71.0007 37.097 70.9097 36.967 70.823 36.863C71.291 36.577 71.746 36.2303 72.188 35.823C72.63 35.407 73.0243 34.9607 73.371 34.484C73.7263 34.0073 74.008 33.5437 74.216 33.093H75.139C75.4337 33.5783 75.7717 34.055 76.153 34.523C76.543 34.9823 76.9547 35.3983 77.388 35.771C77.83 36.1437 78.2677 36.4557 78.701 36.707C78.6143 36.8197 78.519 36.9583 78.415 37.123C78.3197 37.2877 78.233 37.435 78.155 37.565C77.7303 37.2877 77.3013 36.9583 76.868 36.577C76.4347 36.187 76.0317 35.771 75.659 35.329C75.295 34.887 74.983 34.4537 74.723 34.029ZM74.996 36.434L75.841 36.772C75.5723 37.1273 75.256 37.4697 74.892 37.799C74.528 38.1197 74.1423 38.423 73.735 38.709C73.3363 38.9863 72.9377 39.229 72.539 39.437C72.461 39.3417 72.3613 39.2377 72.24 39.125C72.1187 39.0123 72.0017 38.917 71.889 38.839C72.2703 38.657 72.6517 38.436 73.033 38.176C73.423 37.916 73.787 37.6387 74.125 37.344C74.4717 37.0407 74.762 36.7373 74.996 36.434ZM76.088 38.345L76.946 38.709C76.608 39.1597 76.205 39.5887 75.737 39.996C75.2777 40.3947 74.7793 40.763 74.242 41.101C73.7047 41.439 73.1587 41.725 72.604 41.959C72.5347 41.855 72.4393 41.738 72.318 41.608C72.2053 41.478 72.0883 41.3697 71.967 41.283C72.4957 41.075 73.02 40.8193 73.54 40.516C74.06 40.2127 74.541 39.8747 74.983 39.502C75.425 39.1293 75.7933 38.7437 76.088 38.345ZM77.271 40.295L78.142 40.685C77.5353 41.7163 76.6947 42.6047 75.62 43.35C74.554 44.0867 73.3407 44.6587 71.98 45.066C71.9107 44.936 71.8197 44.793 71.707 44.637C71.5943 44.4897 71.4817 44.3597 71.369 44.247C72.2443 44.013 73.059 43.7053 73.813 43.324C74.5757 42.9427 75.2517 42.5007 75.841 41.998C76.4303 41.4867 76.907 40.919 77.271 40.295ZM67.105 37.019H70.914V37.786H67.105V37.019ZM67.157 33.535H70.862V34.315H67.157V33.535ZM67.105 38.748H70.914V39.528H67.105V38.748ZM66.494 35.238H71.317V36.057H66.494V35.238ZM67.547 40.503H70.927V44.299H67.547V43.493H70.069V41.322H67.547V40.503ZM67.092 40.503H67.95V44.897H67.092V40.503Z" fill="white"/>
<rect width="0.96632" height="20.0113" transform="matrix(0.715037 -0.699087 0.715037 0.699087 25 31.6755)" fill="white"/>
<rect width="0.96632" height="20.0113" transform="matrix(0.715037 0.699087 -0.715037 0.699087 39.3091 31.3347)" fill="white"/>
<path d="M135.572 36.121H141.916V37.551H135.572V36.121ZM138.055 33.937H139.576V44.584C139.576 44.9567 139.533 45.2427 139.446 45.442C139.359 45.65 139.203 45.8147 138.978 45.936C138.753 46.0487 138.475 46.118 138.146 46.144C137.817 46.1787 137.409 46.196 136.924 46.196C136.898 46.0053 136.842 45.7757 136.755 45.507C136.668 45.247 136.577 45.0217 136.482 44.831C136.751 44.8397 137.015 44.8483 137.275 44.857C137.535 44.857 137.708 44.857 137.795 44.857C137.89 44.8483 137.955 44.8267 137.99 44.792C138.033 44.7487 138.055 44.6837 138.055 44.597V33.937ZM135.299 42.881C135.62 42.6903 136.001 42.452 136.443 42.166C136.894 41.8713 137.349 41.5637 137.808 41.243L138.302 42.452C137.921 42.7467 137.526 43.0457 137.119 43.349C136.72 43.6523 136.335 43.9297 135.962 44.181L135.299 42.881ZM135.715 38.682L136.885 38.162C137.093 38.5087 137.292 38.8857 137.483 39.293C137.682 39.7003 137.817 40.0557 137.886 40.359L136.651 40.944C136.608 40.7447 136.534 40.515 136.43 40.255C136.335 39.9863 136.222 39.7177 136.092 39.449C135.971 39.1717 135.845 38.916 135.715 38.682ZM140.577 38.006L141.981 38.552C141.756 38.9507 141.53 39.358 141.305 39.774C141.08 40.19 140.867 40.541 140.668 40.827L139.602 40.346C139.715 40.138 139.832 39.8997 139.953 39.631C140.083 39.3537 140.204 39.0763 140.317 38.799C140.43 38.513 140.516 38.2487 140.577 38.006ZM139.901 34.626L140.98 33.989C141.223 34.2057 141.461 34.457 141.695 34.743C141.938 35.0203 142.12 35.2717 142.241 35.497L141.097 36.199C140.993 35.9737 140.824 35.7137 140.59 35.419C140.365 35.1243 140.135 34.86 139.901 34.626ZM138.653 41.893L139.602 40.944C139.879 41.1433 140.17 41.3687 140.473 41.62C140.785 41.8713 141.075 42.1227 141.344 42.374C141.621 42.6253 141.847 42.855 142.02 43.063L141.006 44.142C140.85 43.934 140.638 43.6957 140.369 43.427C140.109 43.1583 139.827 42.8897 139.524 42.621C139.221 42.3523 138.93 42.1097 138.653 41.893ZM142.865 36.355H147.597V37.798H142.865V36.355ZM143.06 33.937L144.633 34.158C144.52 35.0507 144.369 35.9217 144.178 36.771C143.987 37.6117 143.753 38.396 143.476 39.124C143.207 39.852 142.882 40.4847 142.501 41.022C142.432 40.9267 142.323 40.8053 142.176 40.658C142.029 40.5107 141.877 40.3633 141.721 40.216C141.574 40.0687 141.439 39.9517 141.318 39.865C141.656 39.4057 141.933 38.864 142.15 38.24C142.375 37.616 142.562 36.94 142.709 36.212C142.856 35.4753 142.973 34.717 143.06 33.937ZM143.749 37.603C143.948 38.6343 144.226 39.6137 144.581 40.541C144.936 41.4597 145.383 42.2873 145.92 43.024C146.457 43.752 147.094 44.3327 147.831 44.766C147.71 44.87 147.571 45.0043 147.415 45.169C147.268 45.3337 147.125 45.5027 146.986 45.676C146.856 45.858 146.748 46.0227 146.661 46.17C145.881 45.624 145.218 44.935 144.672 44.103C144.135 43.2623 143.688 42.3133 143.333 41.256C142.986 40.19 142.696 39.0547 142.462 37.85L143.749 37.603ZM145.712 36.42L147.103 37.174C146.93 38.5953 146.635 39.904 146.219 41.1C145.812 42.2873 145.244 43.3187 144.516 44.194C143.797 45.0693 142.878 45.7497 141.76 46.235C141.682 46.0877 141.574 45.9273 141.435 45.754C141.305 45.5807 141.166 45.4117 141.019 45.247C140.872 45.0823 140.724 44.9393 140.577 44.818C141.695 44.4193 142.601 43.83 143.294 43.05C143.996 42.2613 144.533 41.3123 144.906 40.203C145.287 39.085 145.556 37.824 145.712 36.42ZM150.21 37.005H159.037V41.958H149.976V40.697H157.49V38.253H150.21V37.005ZM151.705 34.886H155.969V36.108H151.705V34.886ZM150.431 38.89H158.101V40.047H150.431V38.89ZM151.9 33.885L153.564 34.21C153.261 34.7473 152.91 35.276 152.511 35.796C152.121 36.316 151.675 36.81 151.172 37.278C150.678 37.746 150.115 38.188 149.482 38.604C149.404 38.4827 149.3 38.3483 149.17 38.201C149.049 38.0537 148.914 37.915 148.767 37.785C148.628 37.6463 148.503 37.538 148.39 37.46C148.971 37.1307 149.482 36.7667 149.924 36.368C150.375 35.9693 150.765 35.5577 151.094 35.133C151.423 34.7083 151.692 34.2923 151.9 33.885ZM151.861 42.751H153.382V44.298C153.382 44.4713 153.417 44.5797 153.486 44.623C153.564 44.6663 153.742 44.688 154.019 44.688C154.071 44.688 154.166 44.688 154.305 44.688C154.444 44.688 154.595 44.688 154.76 44.688C154.933 44.688 155.094 44.688 155.241 44.688C155.388 44.688 155.497 44.688 155.566 44.688C155.722 44.688 155.835 44.662 155.904 44.61C155.982 44.5493 156.038 44.4323 156.073 44.259C156.116 44.0857 156.147 43.8213 156.164 43.466C156.268 43.5353 156.394 43.609 156.541 43.687C156.697 43.7563 156.862 43.817 157.035 43.869C157.208 43.921 157.364 43.9643 157.503 43.999C157.451 44.5363 157.36 44.948 157.23 45.234C157.109 45.5287 156.927 45.7323 156.684 45.845C156.441 45.9577 156.121 46.014 155.722 46.014C155.653 46.014 155.553 46.014 155.423 46.014C155.293 46.014 155.15 46.014 154.994 46.014C154.847 46.014 154.691 46.014 154.526 46.014C154.37 46.014 154.227 46.014 154.097 46.014C153.976 46.014 153.885 46.014 153.824 46.014C153.295 46.014 152.888 45.962 152.602 45.858C152.316 45.754 152.121 45.5763 152.017 45.325C151.913 45.0823 151.861 44.7443 151.861 44.311V42.751ZM152.771 42.348L153.72 41.386C153.997 41.4987 154.283 41.633 154.578 41.789C154.873 41.945 155.15 42.1097 155.41 42.283C155.679 42.4563 155.895 42.621 156.06 42.777L155.033 43.843C154.886 43.6783 154.686 43.5093 154.435 43.336C154.184 43.154 153.911 42.9763 153.616 42.803C153.33 42.6297 153.048 42.478 152.771 42.348ZM157.048 43.089L158.348 42.374C158.625 42.6253 158.911 42.9027 159.206 43.206C159.501 43.5093 159.774 43.817 160.025 44.129C160.276 44.4323 160.476 44.7183 160.623 44.987L159.219 45.793C159.098 45.533 158.92 45.247 158.686 44.935C158.452 44.623 158.192 44.3067 157.906 43.986C157.62 43.6567 157.334 43.3577 157.048 43.089ZM150.158 42.543L151.562 43.05C151.371 43.5787 151.129 44.0857 150.834 44.571C150.548 45.0563 150.162 45.4593 149.677 45.78L148.39 44.87C148.815 44.6013 149.179 44.2633 149.482 43.856C149.785 43.44 150.011 43.0023 150.158 42.543ZM155.657 34.886H156.008L156.255 34.821L157.321 35.497C157.174 35.7657 156.992 36.056 156.775 36.368C156.558 36.68 156.333 36.979 156.099 37.265C155.865 37.551 155.64 37.8067 155.423 38.032C155.276 37.9107 155.085 37.7763 154.851 37.629C154.626 37.4817 154.422 37.3603 154.24 37.265C154.431 37.0743 154.617 36.8533 154.799 36.602C154.981 36.342 155.15 36.0863 155.306 35.835C155.462 35.575 155.579 35.354 155.657 35.172V34.886ZM166.083 37.018C166.456 37.0527 166.828 37.083 167.201 37.109C167.582 37.1263 167.968 37.135 168.358 37.135C169.155 37.135 169.948 37.1003 170.737 37.031C171.526 36.9617 172.254 36.8533 172.921 36.706V38.331C172.245 38.4263 171.513 38.5043 170.724 38.565C169.935 38.617 169.147 38.643 168.358 38.643C167.977 38.643 167.595 38.6387 167.214 38.63C166.841 38.6127 166.464 38.591 166.083 38.565V37.018ZM171.023 34.821C171.006 34.9423 170.988 35.0767 170.971 35.224C170.962 35.3713 170.954 35.5187 170.945 35.666C170.936 35.8047 170.928 35.991 170.919 36.225C170.91 36.459 170.906 36.7233 170.906 37.018C170.906 37.304 170.906 37.6073 170.906 37.928C170.906 38.5173 170.915 39.072 170.932 39.592C170.949 40.1033 170.971 40.58 170.997 41.022C171.023 41.4553 171.045 41.854 171.062 42.218C171.088 42.582 171.101 42.92 171.101 43.232C171.101 43.57 171.053 43.882 170.958 44.168C170.871 44.454 170.728 44.7053 170.529 44.922C170.33 45.1387 170.065 45.3033 169.736 45.416C169.415 45.5373 169.021 45.598 168.553 45.598C167.652 45.598 166.941 45.416 166.421 45.052C165.901 44.688 165.641 44.1637 165.641 43.479C165.641 43.037 165.758 42.6513 165.992 42.322C166.226 41.984 166.56 41.724 166.993 41.542C167.426 41.3513 167.938 41.256 168.527 41.256C169.142 41.256 169.701 41.321 170.204 41.451C170.707 41.581 171.166 41.7543 171.582 41.971C171.998 42.1877 172.366 42.426 172.687 42.686C173.016 42.9373 173.311 43.18 173.571 43.414L172.674 44.779C172.18 44.311 171.699 43.908 171.231 43.57C170.763 43.232 170.295 42.972 169.827 42.79C169.368 42.608 168.891 42.517 168.397 42.517C168.033 42.517 167.734 42.5863 167.5 42.725C167.275 42.8637 167.162 43.0587 167.162 43.31C167.162 43.57 167.279 43.7607 167.513 43.882C167.747 44.0033 168.033 44.064 168.371 44.064C168.64 44.064 168.852 44.0207 169.008 43.934C169.164 43.8387 169.272 43.7043 169.333 43.531C169.402 43.349 169.437 43.1323 169.437 42.881C169.437 42.6557 169.428 42.361 169.411 41.997C169.394 41.633 169.372 41.2257 169.346 40.775C169.329 40.3243 169.311 39.8563 169.294 39.371C169.277 38.877 169.268 38.396 169.268 37.928C169.268 37.434 169.264 36.9877 169.255 36.589C169.255 36.1817 169.255 35.8783 169.255 35.679C169.255 35.5837 169.246 35.4493 169.229 35.276C169.212 35.1027 169.19 34.951 169.164 34.821H171.023ZM164.679 34.964C164.653 35.0507 164.614 35.172 164.562 35.328C164.519 35.484 164.48 35.6357 164.445 35.783C164.419 35.9303 164.397 36.043 164.38 36.121C164.337 36.303 164.289 36.55 164.237 36.862C164.185 37.1653 164.129 37.512 164.068 37.902C164.016 38.2833 163.964 38.6777 163.912 39.085C163.86 39.4837 163.821 39.865 163.795 40.229C163.769 40.5843 163.756 40.892 163.756 41.152C163.756 41.282 163.756 41.425 163.756 41.581C163.765 41.7283 163.782 41.867 163.808 41.997C163.869 41.841 163.929 41.6893 163.99 41.542C164.059 41.3947 164.129 41.2473 164.198 41.1C164.267 40.9527 164.332 40.8053 164.393 40.658L165.186 41.308C165.065 41.6633 164.939 42.036 164.809 42.426C164.688 42.816 164.575 43.1843 164.471 43.531C164.376 43.8777 164.302 44.168 164.25 44.402C164.233 44.4887 164.215 44.5927 164.198 44.714C164.189 44.8353 164.185 44.935 164.185 45.013C164.185 45.0823 164.185 45.1647 164.185 45.26C164.194 45.364 164.202 45.4593 164.211 45.546L162.742 45.663C162.603 45.2037 162.482 44.6187 162.378 43.908C162.274 43.1887 162.222 42.387 162.222 41.503C162.222 41.0177 162.244 40.5107 162.287 39.982C162.33 39.4447 162.378 38.929 162.43 38.435C162.491 37.941 162.551 37.4903 162.612 37.083C162.673 36.667 162.72 36.3333 162.755 36.082C162.781 35.9 162.807 35.6963 162.833 35.471C162.859 35.237 162.876 35.016 162.885 34.808L164.679 34.964ZM179.837 40.398H181.449V46.17H179.837V40.398ZM178.524 38.799V39.618H182.411V38.799H178.524ZM177.029 37.707H183.997V40.71H177.029V37.707ZM175.781 41.49H184.53V42.881H177.367V45.585H175.781V41.49ZM183.789 41.49H185.401V44.168C185.401 44.5233 185.353 44.805 185.258 45.013C185.171 45.221 184.998 45.3857 184.738 45.507C184.469 45.611 184.157 45.6717 183.802 45.689C183.447 45.715 183.039 45.728 182.58 45.728C182.545 45.52 182.476 45.2817 182.372 45.013C182.277 44.7443 182.177 44.5103 182.073 44.311C182.264 44.3197 182.459 44.3283 182.658 44.337C182.866 44.337 183.048 44.337 183.204 44.337C183.369 44.337 183.477 44.337 183.529 44.337C183.633 44.337 183.702 44.324 183.737 44.298C183.772 44.272 183.789 44.22 183.789 44.142V41.49ZM179.681 33.937H181.293V36.342H179.681V33.937ZM174.923 35.731H186.142V38.877H184.582V37.083H176.418V38.877H174.923V35.731ZM175.95 34.587L177.38 34.028C177.562 34.236 177.74 34.47 177.913 34.73C178.095 34.99 178.229 35.224 178.316 35.432L176.834 36.082C176.756 35.874 176.635 35.6313 176.47 35.354C176.305 35.068 176.132 34.8123 175.95 34.587ZM183.555 34.054L185.245 34.548C185.011 34.8253 184.781 35.0853 184.556 35.328C184.331 35.5707 184.127 35.7787 183.945 35.952L182.619 35.484C182.732 35.3453 182.844 35.1937 182.957 35.029C183.078 34.8557 183.191 34.6867 183.295 34.522C183.408 34.3487 183.494 34.1927 183.555 34.054ZM192.824 35.913C193.223 35.965 193.669 36.004 194.163 36.03C194.666 36.0473 195.173 36.056 195.684 36.056C196.204 36.0473 196.702 36.03 197.179 36.004C197.656 35.9693 198.067 35.9347 198.414 35.9V37.577C198.015 37.6117 197.578 37.642 197.101 37.668C196.624 37.6853 196.135 37.694 195.632 37.694C195.129 37.694 194.635 37.6853 194.15 37.668C193.673 37.642 193.231 37.6117 192.824 37.577V35.913ZM193.864 41.464C193.812 41.6807 193.773 41.8757 193.747 42.049C193.721 42.2137 193.708 42.3827 193.708 42.556C193.708 42.6947 193.743 42.8247 193.812 42.946C193.881 43.0587 193.985 43.1583 194.124 43.245C194.271 43.323 194.458 43.3837 194.683 43.427C194.917 43.4617 195.199 43.479 195.528 43.479C196.109 43.479 196.655 43.453 197.166 43.401C197.677 43.3403 198.219 43.2537 198.791 43.141L198.817 44.896C198.401 44.974 197.92 45.0347 197.374 45.078C196.837 45.1213 196.2 45.143 195.463 45.143C194.345 45.143 193.513 44.9567 192.967 44.584C192.421 44.2027 192.148 43.6783 192.148 43.011C192.148 42.7597 192.165 42.4997 192.2 42.231C192.243 41.9537 192.3 41.6503 192.369 41.321L193.864 41.464ZM190.822 35.042C190.787 35.1287 190.748 35.25 190.705 35.406C190.662 35.562 190.618 35.7137 190.575 35.861C190.54 36.0083 190.514 36.121 190.497 36.199C190.471 36.381 190.428 36.6193 190.367 36.914C190.315 37.2 190.259 37.525 190.198 37.889C190.146 38.2443 190.094 38.6083 190.042 38.981C189.99 39.3537 189.947 39.7133 189.912 40.06C189.886 40.4067 189.873 40.71 189.873 40.97C189.873 41.0913 189.873 41.23 189.873 41.386C189.882 41.542 189.899 41.685 189.925 41.815C189.986 41.6677 190.051 41.5203 190.12 41.373C190.189 41.2257 190.259 41.0783 190.328 40.931C190.397 40.775 190.458 40.6277 190.51 40.489L191.316 41.126C191.195 41.4813 191.069 41.8627 190.939 42.27C190.818 42.6773 190.705 43.063 190.601 43.427C190.506 43.7823 190.432 44.077 190.38 44.311C190.363 44.4063 190.345 44.5147 190.328 44.636C190.319 44.7573 190.315 44.8527 190.315 44.922C190.315 44.9913 190.315 45.0737 190.315 45.169C190.324 45.273 190.332 45.3683 190.341 45.455L188.833 45.559C188.703 45.1083 188.586 44.5103 188.482 43.765C188.378 43.011 188.326 42.192 188.326 41.308C188.326 40.8227 188.348 40.3287 188.391 39.826C188.434 39.3233 188.486 38.8423 188.547 38.383C188.608 37.915 188.664 37.4903 188.716 37.109C188.777 36.7277 188.829 36.4113 188.872 36.16C188.889 35.978 188.911 35.7743 188.937 35.549C188.972 35.315 188.993 35.094 189.002 34.886L190.822 35.042ZM206.357 36.849H212.571V38.344H206.357V36.849ZM200.598 35.965H206.786V37.408H200.598V35.965ZM209.633 33.95H211.18V44.22C211.18 44.662 211.132 45.0043 211.037 45.247C210.942 45.4983 210.768 45.689 210.517 45.819C210.266 45.9577 209.945 46.0487 209.555 46.092C209.165 46.1353 208.697 46.157 208.151 46.157C208.142 46.001 208.112 45.8233 208.06 45.624C208.008 45.4247 207.947 45.221 207.878 45.013C207.809 44.8137 207.739 44.636 207.67 44.48C208.034 44.4973 208.372 44.506 208.684 44.506C208.996 44.506 209.208 44.506 209.321 44.506C209.434 44.506 209.512 44.4887 209.555 44.454C209.607 44.4107 209.633 44.3327 209.633 44.22V33.95ZM206.227 39.982L207.475 39.384C207.683 39.67 207.882 39.9777 208.073 40.307C208.272 40.6363 208.446 40.9613 208.593 41.282C208.74 41.594 208.849 41.8843 208.918 42.153L207.566 42.829C207.505 42.5777 207.406 42.2873 207.267 41.958C207.137 41.6287 206.981 41.2907 206.799 40.944C206.617 40.5973 206.426 40.2767 206.227 39.982ZM200.845 39.241L201.95 38.344C202.331 38.76 202.726 39.202 203.133 39.67C203.54 40.138 203.935 40.6147 204.316 41.1C204.706 41.5853 205.053 42.0577 205.356 42.517C205.659 42.9677 205.906 43.388 206.097 43.778L204.862 44.844C204.689 44.454 204.455 44.025 204.16 43.557C203.865 43.089 203.532 42.6037 203.159 42.101C202.795 41.5983 202.414 41.1043 202.015 40.619C201.625 40.125 201.235 39.6657 200.845 39.241ZM202.873 33.963H204.368V36.849H202.873V33.963ZM204.29 37.668L205.811 37.876C205.594 39.1327 205.291 40.2767 204.901 41.308C204.511 42.3307 204.021 43.2407 203.432 44.038C202.843 44.8267 202.128 45.5027 201.287 46.066C201.226 45.962 201.131 45.832 201.001 45.676C200.88 45.52 200.75 45.364 200.611 45.208C200.472 45.0607 200.347 44.9393 200.234 44.844C201.031 44.3847 201.699 43.8083 202.236 43.115C202.773 42.413 203.207 41.607 203.536 40.697C203.874 39.787 204.125 38.7773 204.29 37.668ZM218.564 39.462H220.111V43.986C220.111 44.2287 220.137 44.3803 220.189 44.441C220.25 44.5017 220.367 44.532 220.54 44.532C220.592 44.532 220.661 44.532 220.748 44.532C220.843 44.532 220.947 44.532 221.06 44.532C221.173 44.532 221.277 44.532 221.372 44.532C221.467 44.532 221.541 44.532 221.593 44.532C221.723 44.532 221.823 44.4843 221.892 44.389C221.961 44.285 222.009 44.0813 222.035 43.778C222.07 43.4747 222.096 43.024 222.113 42.426C222.226 42.5127 222.36 42.5993 222.516 42.686C222.681 42.7727 222.85 42.8463 223.023 42.907C223.196 42.9677 223.348 43.0197 223.478 43.063C223.435 43.7997 223.352 44.376 223.231 44.792C223.118 45.208 222.945 45.4983 222.711 45.663C222.477 45.8363 222.152 45.923 221.736 45.923C221.675 45.923 221.576 45.923 221.437 45.923C221.307 45.923 221.164 45.923 221.008 45.923C220.861 45.923 220.722 45.923 220.592 45.923C220.462 45.923 220.362 45.923 220.293 45.923C219.834 45.923 219.478 45.8623 219.227 45.741C218.984 45.6283 218.811 45.429 218.707 45.143C218.612 44.857 218.564 44.4757 218.564 43.999V39.462ZM216.718 40.463L218.122 40.762C218.079 41.256 218.018 41.7673 217.94 42.296C217.862 42.8247 217.758 43.3273 217.628 43.804C217.507 44.272 217.346 44.6837 217.147 45.039L215.769 44.415C215.951 44.077 216.103 43.6957 216.224 43.271C216.354 42.8463 216.458 42.3913 216.536 41.906C216.614 41.4207 216.675 40.9397 216.718 40.463ZM218.655 38.006L219.708 36.979C220.055 37.1437 220.427 37.3343 220.826 37.551C221.225 37.7677 221.606 37.993 221.97 38.227C222.334 38.461 222.633 38.6777 222.867 38.877L221.749 40.047C221.541 39.839 221.259 39.6137 220.904 39.371C220.557 39.1197 220.185 38.877 219.786 38.643C219.396 38.4003 219.019 38.188 218.655 38.006ZM222.633 40.645L224.024 40.112C224.284 40.554 224.535 41.035 224.778 41.555C225.021 42.0663 225.229 42.569 225.402 43.063C225.584 43.5483 225.705 43.9903 225.766 44.389L224.232 45.026C224.189 44.636 224.085 44.1897 223.92 43.687C223.764 43.1757 223.573 42.66 223.348 42.14C223.123 41.6113 222.884 41.113 222.633 40.645ZM219.097 33.95H220.722V36.329H219.097V33.95ZM215.171 35.484H225.441V36.966H215.171V35.484ZM214.443 35.484H216.003V38.76C216.003 39.2887 215.981 39.8737 215.938 40.515C215.903 41.1477 215.838 41.802 215.743 42.478C215.648 43.1453 215.509 43.7953 215.327 44.428C215.154 45.0607 214.92 45.6327 214.625 46.144C214.53 46.0573 214.395 45.9533 214.222 45.832C214.057 45.7193 213.888 45.6067 213.715 45.494C213.542 45.39 213.394 45.312 213.273 45.26C213.542 44.792 213.754 44.2807 213.91 43.726C214.066 43.1713 214.179 42.6037 214.248 42.023C214.326 41.4423 214.378 40.8747 214.404 40.32C214.43 39.7567 214.443 39.2367 214.443 38.76V35.484ZM230.823 34.691C230.788 34.9597 230.754 35.25 230.719 35.562C230.693 35.874 230.671 36.16 230.654 36.42C230.645 36.7753 230.628 37.2087 230.602 37.72C230.585 38.2227 230.567 38.7513 230.55 39.306C230.541 39.8607 230.528 40.4067 230.511 40.944C230.502 41.4813 230.498 41.9493 230.498 42.348C230.498 42.7813 230.576 43.128 230.732 43.388C230.897 43.6393 231.113 43.8213 231.382 43.934C231.651 44.038 231.954 44.09 232.292 44.09C232.829 44.09 233.319 44.0207 233.761 43.882C234.203 43.7347 234.606 43.5397 234.97 43.297C235.334 43.0543 235.659 42.7727 235.945 42.452C236.24 42.1313 236.504 41.7933 236.738 41.438L237.921 42.868C237.713 43.18 237.44 43.5093 237.102 43.856C236.764 44.2027 236.361 44.5277 235.893 44.831C235.434 45.1343 234.901 45.3813 234.294 45.572C233.687 45.7627 233.016 45.858 232.279 45.858C231.568 45.858 230.949 45.7453 230.42 45.52C229.9 45.3033 229.493 44.9653 229.198 44.506C228.912 44.038 228.769 43.4357 228.769 42.699C228.769 42.3437 228.773 41.9407 228.782 41.49C228.791 41.0307 228.804 40.554 228.821 40.06C228.838 39.566 228.851 39.085 228.86 38.617C228.869 38.1403 228.877 37.7113 228.886 37.33C228.895 36.9487 228.899 36.6453 228.899 36.42C228.899 36.108 228.886 35.8047 228.86 35.51C228.834 35.2067 228.791 34.925 228.73 34.665L230.823 34.691ZM246.761 34.483C246.744 34.613 246.726 34.7603 246.709 34.925C246.7 35.081 246.692 35.2413 246.683 35.406C246.674 35.5793 246.666 35.8133 246.657 36.108C246.648 36.394 246.644 36.7103 246.644 37.057C246.644 37.4037 246.644 37.746 246.644 38.084C246.644 38.422 246.644 38.7297 246.644 39.007C246.644 39.371 246.653 39.7783 246.67 40.229C246.687 40.671 246.709 41.1217 246.735 41.581C246.77 42.0317 246.796 42.4563 246.813 42.855C246.839 43.245 246.852 43.57 246.852 43.83C246.852 44.194 246.757 44.5277 246.566 44.831C246.375 45.1257 246.089 45.3597 245.708 45.533C245.335 45.7063 244.863 45.793 244.291 45.793C243.251 45.793 242.462 45.6023 241.925 45.221C241.388 44.8397 241.119 44.3067 241.119 43.622C241.119 43.18 241.245 42.7943 241.496 42.465C241.756 42.127 242.124 41.8627 242.601 41.672C243.086 41.4813 243.663 41.386 244.33 41.386C245.041 41.386 245.704 41.464 246.319 41.62C246.943 41.7673 247.511 41.9623 248.022 42.205C248.533 42.4477 248.988 42.7033 249.387 42.972C249.786 43.2407 250.124 43.4833 250.401 43.7L249.465 45.156C249.153 44.8613 248.802 44.571 248.412 44.285C248.031 43.999 247.61 43.739 247.151 43.505C246.7 43.271 246.219 43.0847 245.708 42.946C245.205 42.7987 244.672 42.725 244.109 42.725C243.658 42.725 243.307 42.803 243.056 42.959C242.813 43.115 242.692 43.3057 242.692 43.531C242.692 43.6957 242.744 43.8387 242.848 43.96C242.952 44.0813 243.104 44.1723 243.303 44.233C243.502 44.2937 243.754 44.324 244.057 44.324C244.291 44.324 244.49 44.298 244.655 44.246C244.828 44.194 244.963 44.0987 245.058 43.96C245.153 43.8213 245.201 43.6263 245.201 43.375C245.201 43.1843 245.192 42.9113 245.175 42.556C245.166 42.2007 245.153 41.8107 245.136 41.386C245.119 40.9527 245.101 40.528 245.084 40.112C245.067 39.696 245.058 39.3277 245.058 39.007C245.058 38.695 245.058 38.37 245.058 38.032C245.067 37.6853 245.071 37.343 245.071 37.005C245.071 36.667 245.071 36.3593 245.071 36.082C245.08 35.796 245.084 35.562 245.084 35.38C245.084 35.2587 245.075 35.1113 245.058 34.938C245.049 34.756 245.032 34.6043 245.006 34.483H246.761ZM241.366 35.705C241.6 35.7397 241.86 35.7743 242.146 35.809C242.432 35.8437 242.722 35.8783 243.017 35.913C243.32 35.939 243.606 35.9607 243.875 35.978C244.144 35.9867 244.378 35.991 244.577 35.991C245.461 35.991 246.341 35.965 247.216 35.913C248.1 35.8523 249.014 35.744 249.959 35.588L249.946 37.083C249.504 37.1437 248.993 37.2 248.412 37.252C247.831 37.304 247.212 37.3473 246.553 37.382C245.903 37.408 245.249 37.421 244.59 37.421C244.321 37.421 243.988 37.4123 243.589 37.395C243.199 37.369 242.809 37.3387 242.419 37.304C242.029 37.2607 241.691 37.2217 241.405 37.187L241.366 35.705ZM241.301 38.513C241.509 38.5477 241.756 38.5823 242.042 38.617C242.328 38.6517 242.618 38.6777 242.913 38.695C243.216 38.7123 243.502 38.7297 243.771 38.747C244.04 38.7557 244.261 38.76 244.434 38.76C245.24 38.76 245.968 38.7427 246.618 38.708C247.277 38.6733 247.892 38.63 248.464 38.578C249.036 38.526 249.586 38.4653 250.115 38.396L250.102 39.93C249.651 39.982 249.214 40.0253 248.789 40.06C248.373 40.0947 247.944 40.125 247.502 40.151C247.069 40.177 246.601 40.1943 246.098 40.203C245.595 40.2117 245.032 40.216 244.408 40.216C244.157 40.216 243.845 40.2117 243.472 40.203C243.099 40.1857 242.718 40.164 242.328 40.138C241.947 40.112 241.609 40.0817 241.314 40.047L241.301 38.513ZM260.489 34.522C260.48 34.5913 260.467 34.704 260.45 34.86C260.441 35.0073 260.433 35.159 260.424 35.315C260.415 35.4623 260.407 35.5707 260.398 35.64C260.389 35.8133 260.385 36.0473 260.385 36.342C260.385 36.628 260.385 36.9487 260.385 37.304C260.385 37.6593 260.385 38.019 260.385 38.383C260.394 38.7383 260.398 39.0763 260.398 39.397C260.407 39.709 260.411 39.969 260.411 40.177L258.786 39.631C258.786 39.4663 258.786 39.2497 258.786 38.981C258.786 38.7037 258.786 38.4047 258.786 38.084C258.786 37.7547 258.782 37.4297 258.773 37.109C258.773 36.7883 258.769 36.498 258.76 36.238C258.751 35.978 258.743 35.783 258.734 35.653C258.717 35.3843 258.695 35.1503 258.669 34.951C258.643 34.743 258.621 34.6 258.604 34.522H260.489ZM253.144 36.134C253.525 36.134 253.959 36.1297 254.444 36.121C254.929 36.1123 255.436 36.1037 255.965 36.095C256.494 36.0863 257.014 36.0777 257.525 36.069C258.036 36.0603 258.517 36.056 258.968 36.056C259.419 36.0473 259.809 36.043 260.138 36.043C260.467 36.043 260.827 36.043 261.217 36.043C261.607 36.0343 261.993 36.03 262.374 36.03C262.755 36.03 263.102 36.03 263.414 36.03C263.735 36.03 263.982 36.03 264.155 36.03L264.142 37.564C263.735 37.5467 263.197 37.5337 262.53 37.525C261.863 37.5077 261.048 37.499 260.086 37.499C259.497 37.499 258.899 37.5077 258.292 37.525C257.685 37.5337 257.083 37.5467 256.485 37.564C255.887 37.5813 255.311 37.603 254.756 37.629C254.201 37.6463 253.677 37.6723 253.183 37.707L253.144 36.134ZM260.177 39.982C260.177 40.6927 260.09 41.282 259.917 41.75C259.752 42.218 259.501 42.5733 259.163 42.816C258.825 43.05 258.405 43.167 257.902 43.167C257.659 43.167 257.404 43.115 257.135 43.011C256.875 42.907 256.632 42.7553 256.407 42.556C256.182 42.3567 256 42.1097 255.861 41.815C255.731 41.5203 255.666 41.1737 255.666 40.775C255.666 40.281 255.783 39.8563 256.017 39.501C256.251 39.137 256.563 38.8553 256.953 38.656C257.352 38.448 257.789 38.344 258.266 38.344C258.838 38.344 259.315 38.474 259.696 38.734C260.086 38.9853 260.376 39.3277 260.567 39.761C260.766 40.1943 260.866 40.684 260.866 41.23C260.866 41.6547 260.797 42.0967 260.658 42.556C260.519 43.0153 260.29 43.466 259.969 43.908C259.657 44.3413 259.232 44.7357 258.695 45.091C258.166 45.4463 257.503 45.7367 256.706 45.962L255.315 44.584C255.87 44.4713 256.385 44.324 256.862 44.142C257.339 43.96 257.755 43.7303 258.11 43.453C258.474 43.1757 258.756 42.8333 258.955 42.426C259.163 42.0187 259.267 41.529 259.267 40.957C259.267 40.541 259.163 40.229 258.955 40.021C258.756 39.813 258.513 39.709 258.227 39.709C258.062 39.709 257.902 39.748 257.746 39.826C257.59 39.904 257.464 40.021 257.369 40.177C257.274 40.333 257.226 40.5237 257.226 40.749C257.226 41.0437 257.326 41.282 257.525 41.464C257.733 41.6373 257.967 41.724 258.227 41.724C258.435 41.724 258.617 41.659 258.773 41.529C258.938 41.399 259.046 41.1823 259.098 40.879C259.15 40.5757 259.107 40.1683 258.968 39.657L260.177 39.982Z" fill="white"/>
</svg>
