<svg width="37" height="38" viewBox="0 0 37 38" fill="none" xmlns="http://www.w3.org/2000/svg">
<path d="M36.7502 6.40893C36.5047 5.87401 36.0912 5.44997 35.5916 5.17062C35.0921 4.89137 34.5085 4.74956 33.893 4.74956C32.8134 4.74956 31.6307 5.18502 30.5831 6.11602C29.7107 6.89091 28.9407 8.011 28.3842 9.50209V1.30276C28.3842 0.583677 27.8028 0 27.089 0H8.91961C8.20508 0 7.62435 0.583677 7.62435 1.30276V9.19126L4.88314 8.15216C4.46613 7.99382 4.0349 7.91943 3.61151 7.91943C2.87991 7.91943 2.17257 8.14213 1.57911 8.54963C0.984916 8.95509 0.503855 9.54583 0.231995 10.2721C0.0747476 10.6916 0 11.1264 0 11.5518C0 12.2866 0.222767 12.9985 0.626219 13.5972C1.02893 14.193 1.61686 14.6786 2.3384 14.9522L4.77075 15.8732C4.62125 15.9462 4.47683 16.03 4.33878 16.1245C3.77734 16.5092 3.31907 17.0699 3.0629 17.7582C2.91267 18.1542 2.84226 18.566 2.84226 18.9699C2.84226 19.6675 3.05146 20.3407 3.43581 20.9086C3.81868 21.4736 4.37514 21.932 5.05977 22.1934L5.23981 22.2614C5.17355 22.3001 5.10665 22.3424 5.04408 22.3861C4.47904 22.7692 4.0229 23.3286 3.76599 24.0197C3.61649 24.4157 3.54608 24.8268 3.54608 25.2307C3.54608 25.9297 3.75602 26.6015 4.14037 27.1673C4.52039 27.7359 5.07684 28.1943 5.76 28.452L5.9393 28.5208C5.86954 28.5602 5.80337 28.6025 5.73721 28.6483C5.17503 29.0307 4.71667 29.5914 4.4605 30.2789C4.31036 30.6779 4.24068 31.0889 4.24068 31.4936C4.24068 32.189 4.45062 32.8651 4.8334 33.4294C5.21628 33.9951 5.77356 34.4563 6.45737 34.7142L8.79291 35.5994C9.18649 35.7484 9.59566 35.8214 9.99699 35.8214C10.5577 35.8214 11.1007 35.6797 11.5861 35.4247C12.3255 35.9332 13.1795 36.413 14.165 36.8183C15.7784 37.4801 17.7304 37.9406 20.0581 37.995C20.2055 37.9986 20.3499 38 20.4951 38C22.7609 38.0014 24.6539 37.566 26.2266 36.7739C27.4052 36.181 28.3986 35.3889 29.2297 34.4543C30.4793 33.0527 31.3668 31.3383 32.0364 29.4634C32.7039 27.5927 33.1572 25.5581 33.5237 23.4892C33.5329 23.4462 33.5807 23.2327 33.6568 22.8854C33.9585 21.5182 34.715 18.0922 35.4195 14.9238C35.7711 13.3404 36.1105 11.8214 36.3739 10.6583C36.5041 10.0768 36.6166 9.58409 36.7019 9.2181C36.7439 9.03552 36.7794 8.88359 36.8072 8.76908C36.8335 8.65597 36.8543 8.57433 36.8599 8.55492C36.9539 8.22329 37 7.89965 37 7.58733C37.0006 7.16525 36.9138 6.76489 36.7502 6.40893ZM2.79381 13.7317C2.32834 13.5554 1.957 13.2476 1.69714 12.8637C1.43746 12.4798 1.29507 12.0214 1.29507 11.5517C1.29507 11.2788 1.34195 11.0031 1.44383 10.7303C1.61962 10.2618 1.92489 9.8874 2.30703 9.62588C2.68704 9.36594 3.14392 9.22135 3.61151 9.22135C3.88116 9.22135 4.15597 9.26852 4.42635 9.37105L7.62445 10.5828V15.5622L2.79381 13.7317ZM4.50747 20.1758C4.26901 19.8212 4.13742 19.4023 4.13742 18.9697C4.13742 18.7191 4.18153 18.467 4.274 18.2164C4.43484 17.7867 4.71658 17.4421 5.06678 17.2023C5.41616 16.963 5.8353 16.8299 6.26302 16.8299C6.51135 16.8299 6.76254 16.875 7.01087 16.9674H7.01373L7.62435 17.2008L9.34936 17.8539C9.66819 17.9743 9.93719 18.162 10.155 18.3968C10.2268 18.4742 10.2945 18.5601 10.3571 18.6517C10.5948 19.0028 10.7243 19.4252 10.7243 19.8549C10.7243 20.1056 10.6801 20.3591 10.5869 20.6112C10.4865 20.8826 10.3385 21.1161 10.155 21.3145C10.0453 21.4319 9.92723 21.5335 9.79416 21.6245C9.44478 21.8644 9.02841 21.9947 8.59856 21.9947C8.3495 21.9947 8.09831 21.9503 7.84998 21.8558L7.62435 21.7698L5.51508 20.9734C5.08662 20.8094 4.74509 20.5281 4.50747 20.1758ZM5.20834 26.4357C4.97136 26.0826 4.84189 25.6614 4.84189 25.2303C4.84189 24.9804 4.88462 24.7276 4.97856 24.4785C5.13867 24.0459 5.41837 23.7051 5.77135 23.4615C6.11999 23.2223 6.53987 23.0906 6.96685 23.0906C7.18463 23.0906 7.40518 23.1234 7.62435 23.1987C7.65573 23.2066 7.68415 23.2195 7.71543 23.2295L10.0511 24.1154C10.0873 24.1283 10.1208 24.1419 10.155 24.1577C10.535 24.3245 10.841 24.5874 11.058 24.9103C11.2965 25.2648 11.4281 25.6845 11.4281 26.117C11.4281 26.3677 11.3847 26.6198 11.2922 26.8705C11.2922 26.8705 11.2886 26.8748 11.2886 26.8775C11.1284 27.3059 10.8452 27.6468 10.4994 27.8845C10.1493 28.1237 9.72938 28.2562 9.30248 28.2562C9.05406 28.2562 8.80287 28.2124 8.55455 28.1194L7.62445 27.767L6.21901 27.232C5.78907 27.0702 5.44957 26.7887 5.20834 26.4357ZM12.0138 33.0437C12.0052 33.0723 11.9953 33.1039 11.9853 33.1325C11.8244 33.5623 11.544 33.906 11.194 34.1452C10.8431 34.3851 10.4267 34.5191 9.99699 34.5191C9.74792 34.5191 9.49738 34.4747 9.24831 34.3802L6.91277 33.4943C6.48293 33.3332 6.14352 33.0482 5.90506 32.6965C5.66744 32.3455 5.53502 31.9237 5.53502 31.4934C5.53502 31.2427 5.57922 30.9871 5.67307 30.7399C5.83318 30.3081 6.115 29.963 6.46438 29.7238C6.80314 29.491 7.21019 29.3614 7.62435 29.3542H7.66136C7.90895 29.3542 8.16097 29.3958 8.4093 29.491L8.51099 29.529L10.7442 30.3755C11.174 30.5388 11.5142 30.8217 11.7547 31.1733C11.993 31.5272 12.1233 31.9468 12.1233 32.3801C12.1233 32.5982 12.0892 32.8218 12.0138 33.0437ZM10.5093 22.8957L10.3236 22.8255C10.3912 22.7869 10.4566 22.7446 10.5222 22.7009C11.0865 22.3185 11.5419 21.757 11.7988 21.0695C11.949 20.6713 12.0194 20.2587 12.0194 19.8549C12.0194 19.1573 11.8095 18.4856 11.4259 17.9198C11.1128 17.4536 10.6801 17.0591 10.155 16.7911V3.90873H25.9049V26.7472H12.6599C12.6983 26.5366 12.7225 26.3261 12.7225 26.117C12.7225 25.4188 12.5133 24.7462 12.1304 24.1776C11.7476 23.6133 11.1904 23.1535 10.5093 22.8957ZM18.9109 29.4221C18.9109 29.9256 18.5053 30.3352 18.0043 30.3352C17.504 30.3352 17.0984 29.9256 17.0984 29.4221C17.0984 28.9193 17.504 28.5104 18.0043 28.5104C18.5053 28.5104 18.9109 28.9193 18.9109 29.4221ZM35.6151 8.19794C35.5945 8.26815 35.5709 8.36622 35.5347 8.51657C35.4037 9.06942 35.1333 10.2597 34.8017 11.7408C33.8083 16.181 32.2583 23.2166 32.2583 23.2166L32.2555 23.2295L32.2526 23.2439C31.9323 25.0543 31.5474 26.8147 31.0214 28.4245C30.6279 29.6334 30.1547 30.7571 29.5754 31.7569C28.7044 33.2587 27.6027 34.4791 26.1475 35.3363C24.6893 36.1921 22.8626 36.6962 20.4949 36.6977C20.3611 36.6977 20.2259 36.6948 20.0878 36.6919C17.9131 36.6404 16.1226 36.2151 14.6545 35.612C13.8995 35.3012 13.2305 34.9431 12.6384 34.5635C12.8703 34.2785 13.0626 33.9534 13.1964 33.591C13.2648 33.4119 13.316 33.2265 13.35 33.0438C13.3764 32.9156 13.3935 32.7874 13.4027 32.66L27.0889 32.7831C27.8027 32.7831 28.3841 32.1994 28.3841 31.4811V14.0954C28.6189 13.2633 28.9221 12.1905 29.3148 10.8025C29.8187 9.02215 30.6072 7.83334 31.4404 7.09142C32.2746 6.35014 33.1605 6.05222 33.8928 6.05222C34.4515 6.05222 34.914 6.22477 35.2207 6.48907C35.3737 6.6215 35.4918 6.77474 35.5744 6.95527C35.657 7.13497 35.7046 7.34207 35.7054 7.58687C35.7055 7.76963 35.6784 7.97227 35.6151 8.19794Z" fill="#19315A"/>
</svg>
