<svg width="280" height="149" viewBox="0 0 280 149" fill="none" xmlns="http://www.w3.org/2000/svg">
<rect width="280" height="149" fill="white"/>
<rect x="1" y="38" width="89" height="36" fill="#19315A"/>
<path d="M12.336 62.156C11.784 62.156 11.3 61.988 10.884 61.652C10.476 61.316 10.16 60.808 9.936 60.128C9.712 59.448 9.6 58.596 9.6 57.572C9.6 56.548 9.712 55.704 9.936 55.04C10.16 54.368 10.476 53.868 10.884 53.54C11.3 53.212 11.784 53.048 12.336 53.048C12.896 53.048 13.38 53.216 13.788 53.552C14.196 53.88 14.512 54.376 14.736 55.04C14.96 55.704 15.072 56.548 15.072 57.572C15.072 58.596 14.96 59.448 14.736 60.128C14.512 60.808 14.196 61.316 13.788 61.652C13.38 61.988 12.896 62.156 12.336 62.156ZM12.336 61.268C12.672 61.268 12.964 61.14 13.212 60.884C13.468 60.628 13.664 60.228 13.8 59.684C13.944 59.132 14.016 58.428 14.016 57.572C14.016 56.716 13.944 56.02 13.8 55.484C13.664 54.94 13.468 54.544 13.212 54.296C12.964 54.04 12.672 53.912 12.336 53.912C12.008 53.912 11.716 54.04 11.46 54.296C11.204 54.544 11.004 54.94 10.86 55.484C10.724 56.02 10.656 56.716 10.656 57.572C10.656 58.428 10.724 59.132 10.86 59.684C11.004 60.228 11.204 60.628 11.46 60.884C11.716 61.14 12.008 61.268 12.336 61.268ZM18.4763 62.156C17.9963 62.156 17.5803 62.072 17.2283 61.904C16.8843 61.728 16.5923 61.512 16.3523 61.256L16.9523 60.572C17.1443 60.78 17.3683 60.944 17.6243 61.064C17.8883 61.184 18.1603 61.244 18.4403 61.244C18.7363 61.244 19.0163 61.176 19.2803 61.04C19.5443 60.904 19.7763 60.68 19.9763 60.368C20.1843 60.048 20.3443 59.632 20.4563 59.12C20.5763 58.608 20.6363 57.976 20.6363 57.224C20.6363 56.504 20.5603 55.896 20.4083 55.4C20.2643 54.904 20.0483 54.532 19.7603 54.284C19.4723 54.028 19.1243 53.9 18.7163 53.9C18.4363 53.9 18.1843 53.984 17.9603 54.152C17.7363 54.32 17.5563 54.552 17.4202 54.848C17.2843 55.144 17.2163 55.496 17.2163 55.904C17.2163 56.296 17.2723 56.64 17.3843 56.936C17.5043 57.224 17.6803 57.448 17.9123 57.608C18.1523 57.768 18.4443 57.848 18.7883 57.848C19.0843 57.848 19.3923 57.756 19.7123 57.572C20.0403 57.38 20.3523 57.068 20.6483 56.636L20.6963 57.512C20.5203 57.736 20.3163 57.936 20.0843 58.112C19.8603 58.288 19.6203 58.424 19.3643 58.52C19.1163 58.616 18.8643 58.664 18.6083 58.664C18.1203 58.664 17.6923 58.56 17.3243 58.352C16.9643 58.144 16.6843 57.836 16.4843 57.428C16.2843 57.012 16.1843 56.504 16.1843 55.904C16.1843 55.328 16.3003 54.828 16.5323 54.404C16.7643 53.972 17.0683 53.64 17.4443 53.408C17.8283 53.168 18.2483 53.048 18.7043 53.048C19.1283 53.048 19.5203 53.136 19.8803 53.312C20.2403 53.48 20.5523 53.74 20.8163 54.092C21.0803 54.436 21.2883 54.868 21.4403 55.388C21.5923 55.908 21.6683 56.52 21.6683 57.224C21.6683 58.112 21.5803 58.872 21.4043 59.504C21.2283 60.128 20.9883 60.636 20.6843 61.028C20.3803 61.42 20.0363 61.708 19.6523 61.892C19.2763 62.068 18.8843 62.156 18.4763 62.156ZM23.9805 57.32C23.7645 57.32 23.5765 57.244 23.4165 57.092C23.2645 56.932 23.1885 56.728 23.1885 56.48C23.1885 56.232 23.2645 56.032 23.4165 55.88C23.5765 55.72 23.7645 55.64 23.9805 55.64C24.1965 55.64 24.3805 55.72 24.5325 55.88C24.6925 56.032 24.7725 56.232 24.7725 56.48C24.7725 56.728 24.6925 56.932 24.5325 57.092C24.3805 57.244 24.1965 57.32 23.9805 57.32ZM23.9805 62.156C23.7645 62.156 23.5765 62.08 23.4165 61.928C23.2645 61.768 23.1885 61.568 23.1885 61.328C23.1885 61.072 23.2645 60.868 23.4165 60.716C23.5765 60.564 23.7645 60.488 23.9805 60.488C24.1965 60.488 24.3805 60.564 24.5325 60.716C24.6925 60.868 24.7725 61.072 24.7725 61.328C24.7725 61.568 24.6925 61.768 24.5325 61.928C24.3805 62.08 24.1965 62.156 23.9805 62.156ZM28.9883 62.156C28.4363 62.156 27.9523 61.988 27.5363 61.652C27.1283 61.316 26.8123 60.808 26.5883 60.128C26.3643 59.448 26.2523 58.596 26.2523 57.572C26.2523 56.548 26.3643 55.704 26.5883 55.04C26.8123 54.368 27.1283 53.868 27.5363 53.54C27.9523 53.212 28.4363 53.048 28.9883 53.048C29.5483 53.048 30.0323 53.216 30.4403 53.552C30.8483 53.88 31.1643 54.376 31.3883 55.04C31.6123 55.704 31.7243 56.548 31.7243 57.572C31.7243 58.596 31.6123 59.448 31.3883 60.128C31.1643 60.808 30.8483 61.316 30.4403 61.652C30.0323 61.988 29.5483 62.156 28.9883 62.156ZM28.9883 61.268C29.3243 61.268 29.6163 61.14 29.8643 60.884C30.1203 60.628 30.3163 60.228 30.4523 59.684C30.5963 59.132 30.6683 58.428 30.6683 57.572C30.6683 56.716 30.5963 56.02 30.4523 55.484C30.3163 54.94 30.1203 54.544 29.8643 54.296C29.6163 54.04 29.3243 53.912 28.9883 53.912C28.6603 53.912 28.3683 54.04 28.1123 54.296C27.8563 54.544 27.6563 54.94 27.5123 55.484C27.3763 56.02 27.3083 56.716 27.3083 57.572C27.3083 58.428 27.3763 59.132 27.5123 59.684C27.6563 60.228 27.8563 60.628 28.1123 60.884C28.3683 61.14 28.6603 61.268 28.9883 61.268ZM35.6446 62.156C35.0926 62.156 34.6086 61.988 34.1926 61.652C33.7846 61.316 33.4686 60.808 33.2446 60.128C33.0206 59.448 32.9086 58.596 32.9086 57.572C32.9086 56.548 33.0206 55.704 33.2446 55.04C33.4686 54.368 33.7846 53.868 34.1926 53.54C34.6086 53.212 35.0926 53.048 35.6446 53.048C36.2046 53.048 36.6886 53.216 37.0966 53.552C37.5046 53.88 37.8206 54.376 38.0446 55.04C38.2686 55.704 38.3806 56.548 38.3806 57.572C38.3806 58.596 38.2686 59.448 38.0446 60.128C37.8206 60.808 37.5046 61.316 37.0966 61.652C36.6886 61.988 36.2046 62.156 35.6446 62.156ZM35.6446 61.268C35.9806 61.268 36.2726 61.14 36.5206 60.884C36.7766 60.628 36.9726 60.228 37.1086 59.684C37.2526 59.132 37.3246 58.428 37.3246 57.572C37.3246 56.716 37.2526 56.02 37.1086 55.484C36.9726 54.94 36.7766 54.544 36.5206 54.296C36.2726 54.04 35.9806 53.912 35.6446 53.912C35.3166 53.912 35.0246 54.04 34.7686 54.296C34.5126 54.544 34.3126 54.94 34.1686 55.484C34.0326 56.02 33.9646 56.716 33.9646 57.572C33.9646 58.428 34.0326 59.132 34.1686 59.684C34.3126 60.228 34.5126 60.628 34.7686 60.884C35.0246 61.14 35.3166 61.268 35.6446 61.268ZM44.6288 57.776C44.3088 57.472 43.9968 57.232 43.6928 57.056C43.3968 56.88 43.0288 56.792 42.5888 56.792C42.1168 56.792 41.6808 56.94 41.2808 57.236C40.8888 57.524 40.5688 57.904 40.3208 58.376L39.4688 57.92C39.8448 57.232 40.3008 56.712 40.8368 56.36C41.3808 56 41.9688 55.82 42.6008 55.82C43.1448 55.82 43.6248 55.932 44.0408 56.156C44.4648 56.372 44.8848 56.688 45.3008 57.104C45.6208 57.408 45.9328 57.648 46.2368 57.824C46.5408 58 46.9088 58.088 47.3408 58.088C47.8128 58.088 48.2448 57.944 48.6368 57.656C49.0368 57.36 49.3608 56.976 49.6088 56.504L50.4608 56.96C50.0848 57.648 49.6248 58.172 49.0808 58.532C48.5448 58.884 47.9608 59.06 47.3288 59.06C46.7928 59.06 46.3128 58.952 45.8888 58.736C45.4648 58.512 45.0448 58.192 44.6288 57.776ZM52.0208 62V61.088H53.9888V54.524H52.4168V53.828C52.8088 53.756 53.1488 53.668 53.4368 53.564C53.7328 53.46 54.0008 53.34 54.2408 53.204H55.0808V61.088H56.8448V62H52.0208ZM60.7771 62.156C60.3211 62.156 59.9171 62.1 59.5651 61.988C59.2211 61.876 58.9171 61.728 58.6531 61.544C58.3891 61.36 58.1611 61.16 57.9691 60.944L58.5331 60.236C58.7891 60.5 59.0891 60.736 59.4331 60.944C59.7851 61.144 60.2091 61.244 60.7051 61.244C61.0571 61.244 61.3651 61.18 61.6291 61.052C61.9011 60.916 62.1131 60.728 62.2651 60.488C62.4171 60.24 62.4931 59.948 62.4931 59.612C62.4931 59.26 62.4051 58.952 62.2291 58.688C62.0611 58.424 61.7771 58.22 61.3771 58.076C60.9771 57.924 60.4371 57.848 59.7571 57.848V57.008C60.3651 57.008 60.8451 56.936 61.1971 56.792C61.5491 56.64 61.8011 56.436 61.9531 56.18C62.1131 55.924 62.1931 55.64 62.1931 55.328C62.1931 54.904 62.0611 54.568 61.7971 54.32C61.5331 54.064 61.1691 53.936 60.7051 53.936C60.3531 53.936 60.0211 54.016 59.7091 54.176C59.4051 54.336 59.1291 54.54 58.8811 54.788L58.2931 54.092C58.6291 53.788 58.9931 53.54 59.3851 53.348C59.7851 53.148 60.2371 53.048 60.7411 53.048C61.2371 53.048 61.6771 53.136 62.0611 53.312C62.4531 53.48 62.7571 53.728 62.9731 54.056C63.1971 54.384 63.3091 54.78 63.3091 55.244C63.3091 55.78 63.1651 56.224 62.8771 56.576C62.5891 56.928 62.2131 57.188 61.7491 57.356V57.416C62.0931 57.496 62.4051 57.636 62.6851 57.836C62.9651 58.036 63.1891 58.288 63.3571 58.592C63.5251 58.896 63.6091 59.248 63.6091 59.648C63.6091 60.168 63.4811 60.616 63.2251 60.992C62.9691 61.368 62.6291 61.656 62.2051 61.856C61.7811 62.056 61.3051 62.156 60.7771 62.156ZM65.9453 57.32C65.7293 57.32 65.5413 57.244 65.3813 57.092C65.2293 56.932 65.1533 56.728 65.1533 56.48C65.1533 56.232 65.2293 56.032 65.3813 55.88C65.5413 55.72 65.7293 55.64 65.9453 55.64C66.1613 55.64 66.3453 55.72 66.4973 55.88C66.6573 56.032 66.7373 56.232 66.7373 56.48C66.7373 56.728 66.6573 56.932 66.4973 57.092C66.3453 57.244 66.1613 57.32 65.9453 57.32ZM65.9453 62.156C65.7293 62.156 65.5413 62.08 65.3813 61.928C65.2293 61.768 65.1533 61.568 65.1533 61.328C65.1533 61.072 65.2293 60.868 65.3813 60.716C65.5413 60.564 65.7293 60.488 65.9453 60.488C66.1613 60.488 66.3453 60.564 66.4973 60.716C66.6573 60.868 66.7373 61.072 66.7373 61.328C66.7373 61.568 66.6573 61.768 66.4973 61.928C66.3453 62.08 66.1613 62.156 65.9453 62.156ZM70.9532 62.156C70.4012 62.156 69.9172 61.988 69.5012 61.652C69.0932 61.316 68.7772 60.808 68.5532 60.128C68.3292 59.448 68.2172 58.596 68.2172 57.572C68.2172 56.548 68.3292 55.704 68.5532 55.04C68.7772 54.368 69.0932 53.868 69.5012 53.54C69.9172 53.212 70.4012 53.048 70.9532 53.048C71.5132 53.048 71.9972 53.216 72.4052 53.552C72.8132 53.88 73.1292 54.376 73.3532 55.04C73.5772 55.704 73.6892 56.548 73.6892 57.572C73.6892 58.596 73.5772 59.448 73.3532 60.128C73.1292 60.808 72.8132 61.316 72.4052 61.652C71.9972 61.988 71.5132 62.156 70.9532 62.156ZM70.9532 61.268C71.2892 61.268 71.5812 61.14 71.8292 60.884C72.0852 60.628 72.2812 60.228 72.4172 59.684C72.5612 59.132 72.6332 58.428 72.6332 57.572C72.6332 56.716 72.5612 56.02 72.4172 55.484C72.2812 54.94 72.0852 54.544 71.8292 54.296C71.5812 54.04 71.2892 53.912 70.9532 53.912C70.6252 53.912 70.3332 54.04 70.0772 54.296C69.8212 54.544 69.6212 54.94 69.4772 55.484C69.3412 56.02 69.2732 56.716 69.2732 57.572C69.2732 58.428 69.3412 59.132 69.4772 59.684C69.6212 60.228 69.8212 60.628 70.0772 60.884C70.3332 61.14 70.6252 61.268 70.9532 61.268ZM77.6094 62.156C77.0574 62.156 76.5734 61.988 76.1574 61.652C75.7494 61.316 75.4334 60.808 75.2094 60.128C74.9854 59.448 74.8734 58.596 74.8734 57.572C74.8734 56.548 74.9854 55.704 75.2094 55.04C75.4334 54.368 75.7494 53.868 76.1574 53.54C76.5734 53.212 77.0574 53.048 77.6094 53.048C78.1694 53.048 78.6534 53.216 79.0614 53.552C79.4694 53.88 79.7854 54.376 80.0094 55.04C80.2334 55.704 80.3454 56.548 80.3454 57.572C80.3454 58.596 80.2334 59.448 80.0094 60.128C79.7854 60.808 79.4694 61.316 79.0614 61.652C78.6534 61.988 78.1694 62.156 77.6094 62.156ZM77.6094 61.268C77.9454 61.268 78.2374 61.14 78.4854 60.884C78.7414 60.628 78.9374 60.228 79.0734 59.684C79.2174 59.132 79.2894 58.428 79.2894 57.572C79.2894 56.716 79.2174 56.02 79.0734 55.484C78.9374 54.94 78.7414 54.544 78.4854 54.296C78.2374 54.04 77.9454 53.912 77.6094 53.912C77.2814 53.912 76.9894 54.04 76.7334 54.296C76.4774 54.544 76.2774 54.94 76.1334 55.484C75.9974 56.02 75.9294 56.716 75.9294 57.572C75.9294 58.428 75.9974 59.132 76.1334 59.684C76.2774 60.228 76.4774 60.628 76.7334 60.884C76.9894 61.14 77.2814 61.268 77.6094 61.268Z" fill="white"/>
<rect x="1" y="75" width="89" height="36" fill="#19315A"/>
<path d="M10.056 99V98.088H12.024V91.524H10.452V90.828C10.844 90.756 11.184 90.668 11.472 90.564C11.768 90.46 12.036 90.34 12.276 90.204H13.116V98.088H14.88V99H10.056ZM19.7363 99V93C19.7363 92.784 19.7443 92.52 19.7603 92.208C19.7763 91.896 19.7883 91.628 19.7963 91.404H19.7483C19.6363 91.612 19.5203 91.828 19.4003 92.052C19.2883 92.268 19.1683 92.484 19.0403 92.7L17.0363 95.7H21.9443V96.576H15.8963V95.856L19.5563 90.204H20.7683V99H19.7363ZM23.9805 94.32C23.7645 94.32 23.5765 94.244 23.4165 94.092C23.2645 93.932 23.1885 93.728 23.1885 93.48C23.1885 93.232 23.2645 93.032 23.4165 92.88C23.5765 92.72 23.7645 92.64 23.9805 92.64C24.1965 92.64 24.3805 92.72 24.5325 92.88C24.6925 93.032 24.7725 93.232 24.7725 93.48C24.7725 93.728 24.6925 93.932 24.5325 94.092C24.3805 94.244 24.1965 94.32 23.9805 94.32ZM23.9805 99.156C23.7645 99.156 23.5765 99.08 23.4165 98.928C23.2645 98.768 23.1885 98.568 23.1885 98.328C23.1885 98.072 23.2645 97.868 23.4165 97.716C23.5765 97.564 23.7645 97.488 23.9805 97.488C24.1965 97.488 24.3805 97.564 24.5325 97.716C24.6925 97.868 24.7725 98.072 24.7725 98.328C24.7725 98.568 24.6925 98.768 24.5325 98.928C24.3805 99.08 24.1965 99.156 23.9805 99.156ZM28.9883 99.156C28.4363 99.156 27.9523 98.988 27.5363 98.652C27.1283 98.316 26.8123 97.808 26.5883 97.128C26.3643 96.448 26.2523 95.596 26.2523 94.572C26.2523 93.548 26.3643 92.704 26.5883 92.04C26.8123 91.368 27.1283 90.868 27.5363 90.54C27.9523 90.212 28.4363 90.048 28.9883 90.048C29.5483 90.048 30.0323 90.216 30.4403 90.552C30.8483 90.88 31.1643 91.376 31.3883 92.04C31.6123 92.704 31.7243 93.548 31.7243 94.572C31.7243 95.596 31.6123 96.448 31.3883 97.128C31.1643 97.808 30.8483 98.316 30.4403 98.652C30.0323 98.988 29.5483 99.156 28.9883 99.156ZM28.9883 98.268C29.3243 98.268 29.6163 98.14 29.8643 97.884C30.1203 97.628 30.3163 97.228 30.4523 96.684C30.5963 96.132 30.6683 95.428 30.6683 94.572C30.6683 93.716 30.5963 93.02 30.4523 92.484C30.3163 91.94 30.1203 91.544 29.8643 91.296C29.6163 91.04 29.3243 90.912 28.9883 90.912C28.6603 90.912 28.3683 91.04 28.1123 91.296C27.8563 91.544 27.6563 91.94 27.5123 92.484C27.3763 93.02 27.3083 93.716 27.3083 94.572C27.3083 95.428 27.3763 96.132 27.5123 96.684C27.6563 97.228 27.8563 97.628 28.1123 97.884C28.3683 98.14 28.6603 98.268 28.9883 98.268ZM35.6446 99.156C35.0926 99.156 34.6086 98.988 34.1926 98.652C33.7846 98.316 33.4686 97.808 33.2446 97.128C33.0206 96.448 32.9086 95.596 32.9086 94.572C32.9086 93.548 33.0206 92.704 33.2446 92.04C33.4686 91.368 33.7846 90.868 34.1926 90.54C34.6086 90.212 35.0926 90.048 35.6446 90.048C36.2046 90.048 36.6886 90.216 37.0966 90.552C37.5046 90.88 37.8206 91.376 38.0446 92.04C38.2686 92.704 38.3806 93.548 38.3806 94.572C38.3806 95.596 38.2686 96.448 38.0446 97.128C37.8206 97.808 37.5046 98.316 37.0966 98.652C36.6886 98.988 36.2046 99.156 35.6446 99.156ZM35.6446 98.268C35.9806 98.268 36.2726 98.14 36.5206 97.884C36.7766 97.628 36.9726 97.228 37.1086 96.684C37.2526 96.132 37.3246 95.428 37.3246 94.572C37.3246 93.716 37.2526 93.02 37.1086 92.484C36.9726 91.94 36.7766 91.544 36.5206 91.296C36.2726 91.04 35.9806 90.912 35.6446 90.912C35.3166 90.912 35.0246 91.04 34.7686 91.296C34.5126 91.544 34.3126 91.94 34.1686 92.484C34.0326 93.02 33.9646 93.716 33.9646 94.572C33.9646 95.428 34.0326 96.132 34.1686 96.684C34.3126 97.228 34.5126 97.628 34.7686 97.884C35.0246 98.14 35.3166 98.268 35.6446 98.268ZM44.6288 94.776C44.3088 94.472 43.9968 94.232 43.6928 94.056C43.3968 93.88 43.0288 93.792 42.5888 93.792C42.1168 93.792 41.6808 93.94 41.2808 94.236C40.8888 94.524 40.5688 94.904 40.3208 95.376L39.4688 94.92C39.8448 94.232 40.3008 93.712 40.8368 93.36C41.3808 93 41.9688 92.82 42.6008 92.82C43.1448 92.82 43.6248 92.932 44.0408 93.156C44.4648 93.372 44.8848 93.688 45.3008 94.104C45.6208 94.408 45.9328 94.648 46.2368 94.824C46.5408 95 46.9088 95.088 47.3408 95.088C47.8128 95.088 48.2448 94.944 48.6368 94.656C49.0368 94.36 49.3608 93.976 49.6088 93.504L50.4608 93.96C50.0848 94.648 49.6248 95.172 49.0808 95.532C48.5448 95.884 47.9608 96.06 47.3288 96.06C46.7928 96.06 46.3128 95.952 45.8888 95.736C45.4648 95.512 45.0448 95.192 44.6288 94.776ZM52.0208 99V98.088H53.9888V91.524H52.4168V90.828C52.8088 90.756 53.1488 90.668 53.4368 90.564C53.7328 90.46 54.0008 90.34 54.2408 90.204H55.0808V98.088H56.8448V99H52.0208ZM61.2331 99.156C60.8171 99.156 60.4291 99.068 60.0691 98.892C59.7091 98.708 59.3971 98.436 59.1331 98.076C58.8691 97.708 58.6611 97.252 58.5091 96.708C58.3651 96.164 58.2931 95.528 58.2931 94.8C58.2931 93.944 58.3811 93.212 58.5571 92.604C58.7331 91.996 58.9731 91.504 59.2771 91.128C59.5811 90.752 59.9291 90.48 60.3211 90.312C60.7131 90.136 61.1211 90.048 61.5451 90.048C62.0011 90.048 62.3971 90.132 62.7331 90.3C63.0691 90.468 63.3611 90.684 63.6091 90.948L62.9851 91.62C62.8171 91.412 62.6091 91.248 62.3611 91.128C62.1131 91.008 61.8571 90.948 61.5931 90.948C61.1771 90.948 60.7971 91.072 60.4531 91.32C60.1091 91.56 59.8331 91.96 59.6251 92.52C59.4251 93.08 59.3251 93.84 59.3251 94.8C59.3251 95.552 59.3971 96.188 59.5411 96.708C59.6931 97.228 59.9091 97.624 60.1891 97.896C60.4771 98.16 60.8251 98.292 61.2331 98.292C61.5211 98.292 61.7731 98.208 61.9891 98.04C62.2131 97.872 62.3891 97.64 62.5171 97.344C62.6531 97.04 62.7211 96.692 62.7211 96.3C62.7211 95.9 62.6611 95.556 62.5411 95.268C62.4291 94.972 62.2571 94.748 62.0251 94.596C61.7931 94.436 61.4971 94.356 61.1371 94.356C60.8571 94.356 60.5531 94.448 60.2251 94.632C59.8971 94.808 59.5851 95.116 59.2891 95.556L59.2531 94.692C59.4371 94.452 59.6411 94.248 59.8651 94.08C60.0891 93.904 60.3251 93.772 60.5731 93.684C60.8291 93.588 61.0771 93.54 61.3171 93.54C61.8131 93.54 62.2411 93.644 62.6011 93.852C62.9691 94.052 63.2531 94.356 63.4531 94.764C63.6611 95.172 63.7651 95.684 63.7651 96.3C63.7651 96.868 63.6491 97.368 63.4171 97.8C63.1851 98.224 62.8771 98.556 62.4931 98.796C62.1171 99.036 61.6971 99.156 61.2331 99.156ZM65.9453 94.32C65.7293 94.32 65.5413 94.244 65.3813 94.092C65.2293 93.932 65.1533 93.728 65.1533 93.48C65.1533 93.232 65.2293 93.032 65.3813 92.88C65.5413 92.72 65.7293 92.64 65.9453 92.64C66.1613 92.64 66.3453 92.72 66.4973 92.88C66.6573 93.032 66.7373 93.232 66.7373 93.48C66.7373 93.728 66.6573 93.932 66.4973 94.092C66.3453 94.244 66.1613 94.32 65.9453 94.32ZM65.9453 99.156C65.7293 99.156 65.5413 99.08 65.3813 98.928C65.2293 98.768 65.1533 98.568 65.1533 98.328C65.1533 98.072 65.2293 97.868 65.3813 97.716C65.5413 97.564 65.7293 97.488 65.9453 97.488C66.1613 97.488 66.3453 97.564 66.4973 97.716C66.6573 97.868 66.7373 98.072 66.7373 98.328C66.7373 98.568 66.6573 98.768 66.4973 98.928C66.3453 99.08 66.1613 99.156 65.9453 99.156ZM70.9532 99.156C70.4012 99.156 69.9172 98.988 69.5012 98.652C69.0932 98.316 68.7772 97.808 68.5532 97.128C68.3292 96.448 68.2172 95.596 68.2172 94.572C68.2172 93.548 68.3292 92.704 68.5532 92.04C68.7772 91.368 69.0932 90.868 69.5012 90.54C69.9172 90.212 70.4012 90.048 70.9532 90.048C71.5132 90.048 71.9972 90.216 72.4052 90.552C72.8132 90.88 73.1292 91.376 73.3532 92.04C73.5772 92.704 73.6892 93.548 73.6892 94.572C73.6892 95.596 73.5772 96.448 73.3532 97.128C73.1292 97.808 72.8132 98.316 72.4052 98.652C71.9972 98.988 71.5132 99.156 70.9532 99.156ZM70.9532 98.268C71.2892 98.268 71.5812 98.14 71.8292 97.884C72.0852 97.628 72.2812 97.228 72.4172 96.684C72.5612 96.132 72.6332 95.428 72.6332 94.572C72.6332 93.716 72.5612 93.02 72.4172 92.484C72.2812 91.94 72.0852 91.544 71.8292 91.296C71.5812 91.04 71.2892 90.912 70.9532 90.912C70.6252 90.912 70.3332 91.04 70.0772 91.296C69.8212 91.544 69.6212 91.94 69.4772 92.484C69.3412 93.02 69.2732 93.716 69.2732 94.572C69.2732 95.428 69.3412 96.132 69.4772 96.684C69.6212 97.228 69.8212 97.628 70.0772 97.884C70.3332 98.14 70.6252 98.268 70.9532 98.268ZM77.6094 99.156C77.0574 99.156 76.5734 98.988 76.1574 98.652C75.7494 98.316 75.4334 97.808 75.2094 97.128C74.9854 96.448 74.8734 95.596 74.8734 94.572C74.8734 93.548 74.9854 92.704 75.2094 92.04C75.4334 91.368 75.7494 90.868 76.1574 90.54C76.5734 90.212 77.0574 90.048 77.6094 90.048C78.1694 90.048 78.6534 90.216 79.0614 90.552C79.4694 90.88 79.7854 91.376 80.0094 92.04C80.2334 92.704 80.3454 93.548 80.3454 94.572C80.3454 95.596 80.2334 96.448 80.0094 97.128C79.7854 97.808 79.4694 98.316 79.0614 98.652C78.6534 98.988 78.1694 99.156 77.6094 99.156ZM77.6094 98.268C77.9454 98.268 78.2374 98.14 78.4854 97.884C78.7414 97.628 78.9374 97.228 79.0734 96.684C79.2174 96.132 79.2894 95.428 79.2894 94.572C79.2894 93.716 79.2174 93.02 79.0734 92.484C78.9374 91.94 78.7414 91.544 78.4854 91.296C78.2374 91.04 77.9454 90.912 77.6094 90.912C77.2814 90.912 76.9894 91.04 76.7334 91.296C76.4774 91.544 76.2774 91.94 76.1334 92.484C75.9974 93.02 75.9294 93.716 75.9294 94.572C75.9294 95.428 75.9974 96.132 76.1334 96.684C76.2774 97.228 76.4774 97.628 76.7334 97.884C76.9894 98.14 77.2814 98.268 77.6094 98.268Z" fill="white"/>
<rect x="91" y="1" width="26" height="36" fill="#19315A"/>
<path d="M101.048 15.556H107.3V16.432H101.048V15.556ZM101.048 18.448H107.36V19.3H101.048V18.448ZM100.952 21.34H107.3V22.216H100.952V21.34ZM100.484 15.556H101.396V19.252C101.396 19.772 101.368 20.328 101.312 20.92C101.264 21.512 101.16 22.112 101 22.72C100.84 23.32 100.6 23.9 100.28 24.46C99.968 25.02 99.552 25.524 99.032 25.972C98.992 25.908 98.928 25.832 98.84 25.744C98.76 25.656 98.676 25.572 98.588 25.492C98.5 25.42 98.42 25.364 98.348 25.324C98.836 24.892 99.22 24.428 99.5 23.932C99.788 23.428 100 22.908 100.136 22.372C100.28 21.836 100.372 21.304 100.412 20.776C100.46 20.24 100.484 19.732 100.484 19.252V15.556ZM106.904 15.556H107.852V24.628C107.852 24.948 107.804 25.192 107.708 25.36C107.612 25.528 107.452 25.652 107.228 25.732C106.996 25.812 106.672 25.86 106.256 25.876C105.84 25.9 105.312 25.912 104.672 25.912C104.656 25.816 104.624 25.712 104.576 25.6C104.536 25.488 104.488 25.372 104.432 25.252C104.384 25.14 104.336 25.044 104.288 24.964C104.624 24.972 104.944 24.98 105.248 24.988C105.56 24.988 105.828 24.988 106.052 24.988C106.284 24.98 106.444 24.976 106.532 24.976C106.676 24.968 106.772 24.94 106.82 24.892C106.876 24.836 106.904 24.744 106.904 24.616V15.556Z" fill="white"/>
<rect x="118" y="1" width="26" height="36" fill="#19315A"/>
<path d="M127.412 17.356L128.312 17.548C128.24 18.02 128.14 18.492 128.012 18.964C127.884 19.428 127.708 19.86 127.484 20.26C127.268 20.652 126.98 20.984 126.62 21.256L125.84 20.728C126.168 20.488 126.436 20.188 126.644 19.828C126.852 19.468 127.016 19.076 127.136 18.652C127.264 18.228 127.356 17.796 127.412 17.356ZM134.948 17.332L135.92 17.716C135.728 18.092 135.516 18.484 135.284 18.892C135.06 19.3 134.832 19.696 134.6 20.08C134.376 20.456 134.16 20.788 133.952 21.076L133.196 20.716C133.396 20.42 133.604 20.076 133.82 19.684C134.044 19.292 134.252 18.892 134.444 18.484C134.644 18.068 134.812 17.684 134.948 17.332ZM130.952 15.088H131.432V18.976C131.432 19.208 131.46 19.488 131.516 19.816C131.572 20.136 131.668 20.488 131.804 20.872C131.94 21.248 132.128 21.636 132.368 22.036C132.616 22.428 132.924 22.816 133.292 23.2C133.66 23.584 134.104 23.944 134.624 24.28C135.144 24.608 135.752 24.896 136.448 25.144C136.384 25.208 136.312 25.288 136.232 25.384C136.16 25.488 136.088 25.592 136.016 25.696C135.944 25.8 135.884 25.892 135.836 25.972C135.14 25.708 134.532 25.396 134.012 25.036C133.492 24.676 133.048 24.296 132.68 23.896C132.312 23.496 132.008 23.096 131.768 22.696C131.528 22.296 131.344 21.924 131.216 21.58C131.088 21.236 130.996 20.952 130.94 20.728C130.892 20.96 130.804 21.244 130.676 21.58C130.556 21.916 130.38 22.28 130.148 22.672C129.924 23.064 129.632 23.46 129.272 23.86C128.92 24.26 128.488 24.64 127.976 25C127.472 25.368 126.88 25.692 126.2 25.972C126.168 25.908 126.112 25.828 126.032 25.732C125.96 25.644 125.884 25.552 125.804 25.456C125.724 25.36 125.652 25.28 125.588 25.216C126.396 24.912 127.08 24.548 127.64 24.124C128.208 23.692 128.676 23.24 129.044 22.768C129.412 22.288 129.7 21.812 129.908 21.34C130.116 20.868 130.26 20.428 130.34 20.02C130.42 19.612 130.46 19.268 130.46 18.988V15.088H130.952Z" fill="white"/>
<rect y="37" width="280" height="1" fill="white"/>
<rect width="280" height="1" fill="white"/>
<rect y="74" width="280" height="1" fill="white"/>
<rect y="111" width="280" height="1" fill="white"/>
<rect y="148" width="280" height="1" fill="white"/>
<rect x="90" y="1" width="1" height="147" fill="white"/>
<rect y="1" width="1" height="147" fill="white"/>
<rect x="117" y="1" width="1" height="147" fill="white"/>
<rect x="144" y="1" width="1" height="147" fill="white"/>
<rect x="171" y="1" width="1" height="147" fill="white"/>
<rect x="198" y="1" width="1" height="147" fill="white"/>
<rect x="225" y="1" width="1" height="147" fill="white"/>
<rect x="252" y="1" width="1" height="147" fill="white"/>
<rect x="279" y="1" width="1" height="147" fill="white"/>
<rect x="1" y="112" width="89" height="36" fill="#19315A"/>
<path d="M10.056 136V135.088H12.024V128.524H10.452V127.828C10.844 127.756 11.184 127.668 11.472 127.564C11.768 127.46 12.036 127.34 12.276 127.204H13.116V135.088H14.88V136H10.056ZM19.2683 136.156C18.8523 136.156 18.4643 136.068 18.1043 135.892C17.7443 135.708 17.4323 135.436 17.1683 135.076C16.9043 134.708 16.6963 134.252 16.5443 133.708C16.4003 133.164 16.3283 132.528 16.3283 131.8C16.3283 130.944 16.4163 130.212 16.5923 129.604C16.7683 128.996 17.0083 128.504 17.3123 128.128C17.6163 127.752 17.9643 127.48 18.3563 127.312C18.7483 127.136 19.1563 127.048 19.5803 127.048C20.0363 127.048 20.4323 127.132 20.7683 127.3C21.1043 127.468 21.3963 127.684 21.6443 127.948L21.0203 128.62C20.8523 128.412 20.6443 128.248 20.3963 128.128C20.1483 128.008 19.8923 127.948 19.6283 127.948C19.2123 127.948 18.8323 128.072 18.4883 128.32C18.1443 128.56 17.8683 128.96 17.6603 129.52C17.4603 130.08 17.3603 130.84 17.3603 131.8C17.3603 132.552 17.4323 133.188 17.5763 133.708C17.7283 134.228 17.9443 134.624 18.2243 134.896C18.5123 135.16 18.8603 135.292 19.2683 135.292C19.5563 135.292 19.8083 135.208 20.0243 135.04C20.2483 134.872 20.4243 134.64 20.5523 134.344C20.6883 134.04 20.7563 133.692 20.7563 133.3C20.7563 132.9 20.6963 132.556 20.5763 132.268C20.4643 131.972 20.2923 131.748 20.0603 131.596C19.8283 131.436 19.5323 131.356 19.1723 131.356C18.8923 131.356 18.5883 131.448 18.2603 131.632C17.9323 131.808 17.6203 132.116 17.3243 132.556L17.2883 131.692C17.4723 131.452 17.6763 131.248 17.9003 131.08C18.1243 130.904 18.3603 130.772 18.6083 130.684C18.8643 130.588 19.1123 130.54 19.3523 130.54C19.8483 130.54 20.2763 130.644 20.6363 130.852C21.0043 131.052 21.2883 131.356 21.4883 131.764C21.6963 132.172 21.8003 132.684 21.8003 133.3C21.8003 133.868 21.6843 134.368 21.4523 134.8C21.2203 135.224 20.9123 135.556 20.5283 135.796C20.1523 136.036 19.7323 136.156 19.2683 136.156ZM23.9805 131.32C23.7645 131.32 23.5765 131.244 23.4165 131.092C23.2645 130.932 23.1885 130.728 23.1885 130.48C23.1885 130.232 23.2645 130.032 23.4165 129.88C23.5765 129.72 23.7645 129.64 23.9805 129.64C24.1965 129.64 24.3805 129.72 24.5325 129.88C24.6925 130.032 24.7725 130.232 24.7725 130.48C24.7725 130.728 24.6925 130.932 24.5325 131.092C24.3805 131.244 24.1965 131.32 23.9805 131.32ZM23.9805 136.156C23.7645 136.156 23.5765 136.08 23.4165 135.928C23.2645 135.768 23.1885 135.568 23.1885 135.328C23.1885 135.072 23.2645 134.868 23.4165 134.716C23.5765 134.564 23.7645 134.488 23.9805 134.488C24.1965 134.488 24.3805 134.564 24.5325 134.716C24.6925 134.868 24.7725 135.072 24.7725 135.328C24.7725 135.568 24.6925 135.768 24.5325 135.928C24.3805 136.08 24.1965 136.156 23.9805 136.156ZM28.9883 136.156C28.4363 136.156 27.9523 135.988 27.5363 135.652C27.1283 135.316 26.8123 134.808 26.5883 134.128C26.3643 133.448 26.2523 132.596 26.2523 131.572C26.2523 130.548 26.3643 129.704 26.5883 129.04C26.8123 128.368 27.1283 127.868 27.5363 127.54C27.9523 127.212 28.4363 127.048 28.9883 127.048C29.5483 127.048 30.0323 127.216 30.4403 127.552C30.8483 127.88 31.1643 128.376 31.3883 129.04C31.6123 129.704 31.7243 130.548 31.7243 131.572C31.7243 132.596 31.6123 133.448 31.3883 134.128C31.1643 134.808 30.8483 135.316 30.4403 135.652C30.0323 135.988 29.5483 136.156 28.9883 136.156ZM28.9883 135.268C29.3243 135.268 29.6163 135.14 29.8643 134.884C30.1203 134.628 30.3163 134.228 30.4523 133.684C30.5963 133.132 30.6683 132.428 30.6683 131.572C30.6683 130.716 30.5963 130.02 30.4523 129.484C30.3163 128.94 30.1203 128.544 29.8643 128.296C29.6163 128.04 29.3243 127.912 28.9883 127.912C28.6603 127.912 28.3683 128.04 28.1123 128.296C27.8563 128.544 27.6563 128.94 27.5123 129.484C27.3763 130.02 27.3083 130.716 27.3083 131.572C27.3083 132.428 27.3763 133.132 27.5123 133.684C27.6563 134.228 27.8563 134.628 28.1123 134.884C28.3683 135.14 28.6603 135.268 28.9883 135.268ZM35.6446 136.156C35.0926 136.156 34.6086 135.988 34.1926 135.652C33.7846 135.316 33.4686 134.808 33.2446 134.128C33.0206 133.448 32.9086 132.596 32.9086 131.572C32.9086 130.548 33.0206 129.704 33.2446 129.04C33.4686 128.368 33.7846 127.868 34.1926 127.54C34.6086 127.212 35.0926 127.048 35.6446 127.048C36.2046 127.048 36.6886 127.216 37.0966 127.552C37.5046 127.88 37.8206 128.376 38.0446 129.04C38.2686 129.704 38.3806 130.548 38.3806 131.572C38.3806 132.596 38.2686 133.448 38.0446 134.128C37.8206 134.808 37.5046 135.316 37.0966 135.652C36.6886 135.988 36.2046 136.156 35.6446 136.156ZM35.6446 135.268C35.9806 135.268 36.2726 135.14 36.5206 134.884C36.7766 134.628 36.9726 134.228 37.1086 133.684C37.2526 133.132 37.3246 132.428 37.3246 131.572C37.3246 130.716 37.2526 130.02 37.1086 129.484C36.9726 128.94 36.7766 128.544 36.5206 128.296C36.2726 128.04 35.9806 127.912 35.6446 127.912C35.3166 127.912 35.0246 128.04 34.7686 128.296C34.5126 128.544 34.3126 128.94 34.1686 129.484C34.0326 130.02 33.9646 130.716 33.9646 131.572C33.9646 132.428 34.0326 133.132 34.1686 133.684C34.3126 134.228 34.5126 134.628 34.7686 134.884C35.0246 135.14 35.3166 135.268 35.6446 135.268ZM44.6288 131.776C44.3088 131.472 43.9968 131.232 43.6928 131.056C43.3968 130.88 43.0288 130.792 42.5888 130.792C42.1168 130.792 41.6808 130.94 41.2808 131.236C40.8888 131.524 40.5688 131.904 40.3208 132.376L39.4688 131.92C39.8448 131.232 40.3008 130.712 40.8368 130.36C41.3808 130 41.9688 129.82 42.6008 129.82C43.1448 129.82 43.6248 129.932 44.0408 130.156C44.4648 130.372 44.8848 130.688 45.3008 131.104C45.6208 131.408 45.9328 131.648 46.2368 131.824C46.5408 132 46.9088 132.088 47.3408 132.088C47.8128 132.088 48.2448 131.944 48.6368 131.656C49.0368 131.36 49.3608 130.976 49.6088 130.504L50.4608 130.96C50.0848 131.648 49.6248 132.172 49.0808 132.532C48.5448 132.884 47.9608 133.06 47.3288 133.06C46.7928 133.06 46.3128 132.952 45.8888 132.736C45.4648 132.512 45.0448 132.192 44.6288 131.776ZM51.4928 136V135.352C52.4128 134.544 53.1688 133.808 53.7608 133.144C54.3608 132.48 54.8048 131.864 55.0928 131.296C55.3808 130.72 55.5248 130.18 55.5248 129.676C55.5248 129.34 55.4648 129.04 55.3448 128.776C55.2328 128.512 55.0568 128.308 54.8168 128.164C54.5768 128.012 54.2728 127.936 53.9048 127.936C53.5448 127.936 53.2088 128.032 52.8968 128.224C52.5928 128.416 52.3208 128.66 52.0808 128.956L51.4448 128.332C51.7968 127.94 52.1768 127.628 52.5848 127.396C52.9928 127.164 53.4768 127.048 54.0368 127.048C54.5648 127.048 55.0168 127.156 55.3928 127.372C55.7768 127.58 56.0728 127.88 56.2808 128.272C56.4968 128.656 56.6048 129.108 56.6048 129.628C56.6048 130.212 56.4568 130.804 56.1608 131.404C55.8728 132.004 55.4688 132.616 54.9488 133.24C54.4368 133.856 53.8368 134.488 53.1488 135.136C53.3808 135.12 53.6208 135.104 53.8688 135.088C54.1248 135.064 54.3648 135.052 54.5888 135.052H57.0248V136H51.4928ZM60.9571 136.156C60.4051 136.156 59.9211 135.988 59.5051 135.652C59.0971 135.316 58.7811 134.808 58.5571 134.128C58.3331 133.448 58.2211 132.596 58.2211 131.572C58.2211 130.548 58.3331 129.704 58.5571 129.04C58.7811 128.368 59.0971 127.868 59.5051 127.54C59.9211 127.212 60.4051 127.048 60.9571 127.048C61.5171 127.048 62.0011 127.216 62.4091 127.552C62.8171 127.88 63.1331 128.376 63.3571 129.04C63.5811 129.704 63.6931 130.548 63.6931 131.572C63.6931 132.596 63.5811 133.448 63.3571 134.128C63.1331 134.808 62.8171 135.316 62.4091 135.652C62.0011 135.988 61.5171 136.156 60.9571 136.156ZM60.9571 135.268C61.2931 135.268 61.5851 135.14 61.8331 134.884C62.0891 134.628 62.2851 134.228 62.4211 133.684C62.5651 133.132 62.6371 132.428 62.6371 131.572C62.6371 130.716 62.5651 130.02 62.4211 129.484C62.2851 128.94 62.0891 128.544 61.8331 128.296C61.5851 128.04 61.2931 127.912 60.9571 127.912C60.6291 127.912 60.3371 128.04 60.0811 128.296C59.8251 128.544 59.6251 128.94 59.4811 129.484C59.3451 130.02 59.2771 130.716 59.2771 131.572C59.2771 132.428 59.3451 133.132 59.4811 133.684C59.6251 134.228 59.8251 134.628 60.0811 134.884C60.3371 135.14 60.6291 135.268 60.9571 135.268ZM65.9453 131.32C65.7293 131.32 65.5413 131.244 65.3813 131.092C65.2293 130.932 65.1533 130.728 65.1533 130.48C65.1533 130.232 65.2293 130.032 65.3813 129.88C65.5413 129.72 65.7293 129.64 65.9453 129.64C66.1613 129.64 66.3453 129.72 66.4973 129.88C66.6573 130.032 66.7373 130.232 66.7373 130.48C66.7373 130.728 66.6573 130.932 66.4973 131.092C66.3453 131.244 66.1613 131.32 65.9453 131.32ZM65.9453 136.156C65.7293 136.156 65.5413 136.08 65.3813 135.928C65.2293 135.768 65.1533 135.568 65.1533 135.328C65.1533 135.072 65.2293 134.868 65.3813 134.716C65.5413 134.564 65.7293 134.488 65.9453 134.488C66.1613 134.488 66.3453 134.564 66.4973 134.716C66.6573 134.868 66.7373 135.072 66.7373 135.328C66.7373 135.568 66.6573 135.768 66.4973 135.928C66.3453 136.08 66.1613 136.156 65.9453 136.156ZM70.9532 136.156C70.4012 136.156 69.9172 135.988 69.5012 135.652C69.0932 135.316 68.7772 134.808 68.5532 134.128C68.3292 133.448 68.2172 132.596 68.2172 131.572C68.2172 130.548 68.3292 129.704 68.5532 129.04C68.7772 128.368 69.0932 127.868 69.5012 127.54C69.9172 127.212 70.4012 127.048 70.9532 127.048C71.5132 127.048 71.9972 127.216 72.4052 127.552C72.8132 127.88 73.1292 128.376 73.3532 129.04C73.5772 129.704 73.6892 130.548 73.6892 131.572C73.6892 132.596 73.5772 133.448 73.3532 134.128C73.1292 134.808 72.8132 135.316 72.4052 135.652C71.9972 135.988 71.5132 136.156 70.9532 136.156ZM70.9532 135.268C71.2892 135.268 71.5812 135.14 71.8292 134.884C72.0852 134.628 72.2812 134.228 72.4172 133.684C72.5612 133.132 72.6332 132.428 72.6332 131.572C72.6332 130.716 72.5612 130.02 72.4172 129.484C72.2812 128.94 72.0852 128.544 71.8292 128.296C71.5812 128.04 71.2892 127.912 70.9532 127.912C70.6252 127.912 70.3332 128.04 70.0772 128.296C69.8212 128.544 69.6212 128.94 69.4772 129.484C69.3412 130.02 69.2732 130.716 69.2732 131.572C69.2732 132.428 69.3412 133.132 69.4772 133.684C69.6212 134.228 69.8212 134.628 70.0772 134.884C70.3332 135.14 70.6252 135.268 70.9532 135.268ZM77.6094 136.156C77.0574 136.156 76.5734 135.988 76.1574 135.652C75.7494 135.316 75.4334 134.808 75.2094 134.128C74.9854 133.448 74.8734 132.596 74.8734 131.572C74.8734 130.548 74.9854 129.704 75.2094 129.04C75.4334 128.368 75.7494 127.868 76.1574 127.54C76.5734 127.212 77.0574 127.048 77.6094 127.048C78.1694 127.048 78.6534 127.216 79.0614 127.552C79.4694 127.88 79.7854 128.376 80.0094 129.04C80.2334 129.704 80.3454 130.548 80.3454 131.572C80.3454 132.596 80.2334 133.448 80.0094 134.128C79.7854 134.808 79.4694 135.316 79.0614 135.652C78.6534 135.988 78.1694 136.156 77.6094 136.156ZM77.6094 135.268C77.9454 135.268 78.2374 135.14 78.4854 134.884C78.7414 134.628 78.9374 134.228 79.0734 133.684C79.2174 133.132 79.2894 132.428 79.2894 131.572C79.2894 130.716 79.2174 130.02 79.0734 129.484C78.9374 128.94 78.7414 128.544 78.4854 128.296C78.2374 128.04 77.9454 127.912 77.6094 127.912C77.2814 127.912 76.9894 128.04 76.7334 128.296C76.4774 128.544 76.2774 128.94 76.1334 129.484C75.9974 130.02 75.9294 130.716 75.9294 131.572C75.9294 132.428 75.9974 133.132 76.1334 133.684C76.2774 134.228 76.4774 134.628 76.7334 134.884C76.9894 135.14 77.2814 135.268 77.6094 135.268Z" fill="white"/>
<rect x="145" y="1" width="26" height="36" fill="#19315A"/>
<path d="M152.66 17.992H156.26V18.904H152.66V17.992ZM157.544 14.944H158.492V24.688C158.492 25.008 158.444 25.248 158.348 25.408C158.26 25.568 158.116 25.692 157.916 25.78C157.716 25.852 157.436 25.9 157.076 25.924C156.716 25.956 156.26 25.972 155.708 25.972C155.692 25.876 155.664 25.768 155.624 25.648C155.584 25.536 155.54 25.42 155.492 25.3C155.444 25.18 155.392 25.076 155.336 24.988C155.776 24.996 156.168 25 156.512 25C156.864 25.008 157.1 25.008 157.22 25C157.34 24.992 157.424 24.968 157.472 24.928C157.52 24.88 157.544 24.8 157.544 24.688V14.944ZM155.948 17.992H156.14L156.308 17.956L156.92 18.196C156.712 19.244 156.42 20.192 156.044 21.04C155.668 21.888 155.228 22.628 154.724 23.26C154.22 23.892 153.672 24.404 153.08 24.796C153.032 24.724 152.964 24.644 152.876 24.556C152.788 24.46 152.696 24.368 152.6 24.28C152.504 24.192 152.42 24.128 152.348 24.088C152.924 23.728 153.452 23.264 153.932 22.696C154.412 22.128 154.824 21.468 155.168 20.716C155.52 19.956 155.78 19.12 155.948 18.208V17.992ZM158.432 16.912C158.64 17.712 158.904 18.488 159.224 19.24C159.544 19.992 159.92 20.692 160.352 21.34C160.784 21.98 161.276 22.548 161.828 23.044C162.38 23.54 162.992 23.932 163.664 24.22C163.592 24.276 163.512 24.352 163.424 24.448C163.336 24.544 163.252 24.644 163.172 24.748C163.092 24.852 163.024 24.948 162.968 25.036C162.056 24.588 161.26 23.968 160.58 23.176C159.908 22.376 159.336 21.456 158.864 20.416C158.4 19.368 158.02 18.252 157.724 17.068L158.432 16.912ZM162.356 16.864L163.184 17.452C162.856 17.82 162.492 18.204 162.092 18.604C161.7 18.996 161.304 19.372 160.904 19.732C160.504 20.092 160.128 20.408 159.776 20.68L159.14 20.176C159.484 19.896 159.852 19.568 160.244 19.192C160.644 18.808 161.028 18.416 161.396 18.016C161.772 17.608 162.092 17.224 162.356 16.864Z" fill="white"/>
<rect x="172" y="1" width="26" height="36" fill="#19315A"/>
<path d="M179.804 17.872H190.22V18.772H179.804V17.872ZM184.52 14.932H185.468V25.96H184.52V14.932ZM184.316 18.328L185.096 18.604C184.816 19.228 184.488 19.836 184.112 20.428C183.736 21.02 183.328 21.584 182.888 22.12C182.448 22.648 181.984 23.132 181.496 23.572C181.016 24.004 180.52 24.372 180.008 24.676C179.96 24.596 179.892 24.512 179.804 24.424C179.724 24.328 179.644 24.236 179.564 24.148C179.484 24.06 179.408 23.984 179.336 23.92C179.832 23.648 180.32 23.312 180.8 22.912C181.288 22.512 181.748 22.064 182.18 21.568C182.62 21.064 183.02 20.54 183.38 19.996C183.748 19.444 184.06 18.888 184.316 18.328ZM185.648 18.352C185.912 18.888 186.228 19.428 186.596 19.972C186.964 20.508 187.368 21.024 187.808 21.52C188.256 22.016 188.72 22.464 189.2 22.864C189.68 23.264 190.16 23.6 190.64 23.872C190.568 23.928 190.488 24.004 190.4 24.1C190.312 24.188 190.228 24.28 190.148 24.376C190.068 24.472 190.004 24.564 189.956 24.652C189.468 24.34 188.984 23.968 188.504 23.536C188.024 23.096 187.56 22.612 187.112 22.084C186.672 21.548 186.26 20.988 185.876 20.404C185.5 19.812 185.168 19.22 184.88 18.628L185.648 18.352Z" fill="white"/>
<rect x="199" y="1" width="26" height="36" fill="#19315A"/>
<path d="M211.952 15.784C211.624 16.256 211.2 16.748 210.68 17.26C210.168 17.764 209.596 18.248 208.964 18.712C208.34 19.176 207.688 19.588 207.008 19.948C206.968 19.876 206.916 19.796 206.852 19.708C206.788 19.62 206.72 19.536 206.648 19.456C206.584 19.368 206.516 19.292 206.444 19.228C207.14 18.884 207.808 18.472 208.448 17.992C209.096 17.504 209.68 16.992 210.2 16.456C210.72 15.92 211.136 15.404 211.448 14.908H212.36C212.68 15.332 213.044 15.752 213.452 16.168C213.86 16.584 214.292 16.976 214.748 17.344C215.212 17.704 215.684 18.032 216.164 18.328C216.652 18.624 217.132 18.876 217.604 19.084C217.492 19.196 217.384 19.324 217.28 19.468C217.176 19.612 217.084 19.752 217.004 19.888C216.548 19.648 216.08 19.372 215.6 19.06C215.12 18.74 214.652 18.4 214.196 18.04C213.748 17.672 213.332 17.3 212.948 16.924C212.564 16.54 212.232 16.16 211.952 15.784ZM208.988 18.58H215V19.384H208.988V18.58ZM207.428 20.992H216.56V21.784H207.428V20.992ZM206.876 24.784H217.136V25.576H206.876V24.784ZM211.472 18.892H212.42V25.192H211.472V18.892ZM208.424 22.396L209.156 22.108C209.324 22.324 209.484 22.564 209.636 22.828C209.796 23.084 209.936 23.34 210.056 23.596C210.176 23.844 210.26 24.068 210.308 24.268L209.528 24.604C209.48 24.404 209.4 24.176 209.288 23.92C209.176 23.664 209.044 23.404 208.892 23.14C208.74 22.876 208.584 22.628 208.424 22.396ZM214.712 22.084L215.564 22.42C215.332 22.796 215.084 23.188 214.82 23.596C214.564 23.996 214.32 24.332 214.088 24.604L213.416 24.316C213.56 24.116 213.712 23.888 213.872 23.632C214.032 23.368 214.184 23.1 214.328 22.828C214.48 22.556 214.608 22.308 214.712 22.084Z" fill="white"/>
<rect x="226" y="1" width="26" height="36" fill="#19315A"/>
<path d="M234.392 18.784H243.62V19.66H234.392V18.784ZM233.624 24.544H244.388V25.42H233.624V24.544ZM238.496 14.956H239.456V25.108H238.496V14.956Z" fill="white"/>
<rect x="253" y="1" width="26" height="36" fill="#19315A"/>
<path d="M262.112 15.736H269.984V25.768H269.024V16.636H263.036V25.828H262.112V15.736ZM262.736 19.888H269.432V20.776H262.736V19.888ZM262.712 24.148H269.444V25.048H262.712V24.148Z" fill="white"/>
<rect x="91" y="38" width="26" height="36" fill="#19315A"/>
<circle cx="104" cy="56" r="7" fill="white"/>
<rect x="118" y="38" width="26" height="36" fill="#19315A"/>
<circle cx="131" cy="56" r="7" fill="white"/>
<rect x="172" y="38" width="26" height="36" fill="#19315A"/>
<circle cx="185" cy="56" r="7" fill="white"/>
<rect x="199" y="38" width="26" height="36" fill="#19315A"/>
<circle cx="212" cy="56" r="7" fill="white"/>
<rect x="226" y="38" width="26" height="36" fill="#19315A"/>
<circle cx="239" cy="56" r="7" fill="white"/>
<rect x="253" y="38" width="26" height="36" fill="#19315A"/>
<circle cx="266" cy="56" r="7" fill="white"/>
<rect x="91" y="112" width="26" height="36" fill="#19315A"/>
<circle cx="104" cy="130" r="7" fill="white"/>
<rect x="118" y="112" width="26" height="36" fill="#19315A"/>
<circle cx="131" cy="130" r="7" fill="white"/>
<rect x="172" y="112" width="26" height="36" fill="#19315A"/>
<circle cx="185" cy="130" r="7" fill="white"/>
<rect x="199" y="112" width="26" height="36" fill="#19315A"/>
<circle cx="212" cy="130" r="7" fill="white"/>
<rect x="226" y="112" width="26" height="36" fill="#19315A"/>
<circle cx="239" cy="130" r="7" fill="white"/>
<rect x="253" y="112" width="26" height="36" fill="#19315A"/>
<circle cx="266" cy="130" r="7" fill="white"/>
<rect x="145" y="38" width="26" height="36" fill="#19315A"/>
<rect x="151" y="49.333" width="0.470805" height="19.3279" transform="rotate(-45 151 49.333)" fill="white"/>
<rect x="164.667" y="49" width="0.470805" height="19.3279" transform="rotate(45 164.667 49)" fill="white"/>
<rect x="145" y="75" width="26" height="36" fill="#19315A"/>
<rect x="151" y="86.333" width="0.470805" height="19.3279" transform="rotate(-45 151 86.333)" fill="white"/>
<rect x="164.667" y="86" width="0.470805" height="19.3279" transform="rotate(45 164.667 86)" fill="white"/>
<rect x="145" y="112" width="26" height="36" fill="#19315A"/>
<rect x="151" y="123.333" width="0.470805" height="19.3279" transform="rotate(-45 151 123.333)" fill="white"/>
<rect x="164.667" y="123" width="0.470805" height="19.3279" transform="rotate(45 164.667 123)" fill="white"/>
<rect x="91" y="75" width="26" height="36" fill="#19315A"/>
<circle cx="104" cy="93" r="6.5" stroke="white"/>
<rect x="118" y="75" width="26" height="36" fill="#19315A"/>
<circle cx="131" cy="93" r="6.5" stroke="white"/>
<rect x="172" y="75" width="26" height="36" fill="#19315A"/>
<circle cx="185" cy="93" r="6.5" stroke="white"/>
<rect x="199" y="75" width="26" height="36" fill="#19315A"/>
<circle cx="212" cy="93" r="6.5" stroke="white"/>
<rect x="226" y="75" width="26" height="36" fill="#19315A"/>
<circle cx="239" cy="93" r="6.5" stroke="white"/>
<rect x="253" y="75" width="26" height="36" fill="#19315A"/>
<circle cx="266" cy="93" r="6.5" stroke="white"/>
<rect x="1" y="1" width="89" height="36" fill="#19315A"/>
<path d="M17.052 15.796C16.844 16.18 16.576 16.58 16.248 16.996C15.928 17.404 15.568 17.796 15.168 18.172C14.776 18.54 14.36 18.864 13.92 19.144C13.872 19.032 13.8 18.908 13.704 18.772C13.616 18.628 13.532 18.508 13.452 18.412C13.884 18.148 14.304 17.828 14.712 17.452C15.12 17.068 15.484 16.656 15.804 16.216C16.132 15.776 16.392 15.348 16.584 14.932H17.436C17.708 15.38 18.02 15.82 18.372 16.252C18.732 16.676 19.112 17.06 19.512 17.404C19.92 17.748 20.324 18.036 20.724 18.268C20.644 18.372 20.556 18.5 20.46 18.652C20.372 18.804 20.292 18.94 20.22 19.06C19.828 18.804 19.432 18.5 19.032 18.148C18.632 17.788 18.26 17.404 17.916 16.996C17.58 16.588 17.292 16.188 17.052 15.796ZM17.304 18.016L18.084 18.328C17.836 18.656 17.544 18.972 17.208 19.276C16.872 19.572 16.516 19.852 16.14 20.116C15.772 20.372 15.404 20.596 15.036 20.788C14.964 20.7 14.872 20.604 14.76 20.5C14.648 20.396 14.54 20.308 14.436 20.236C14.788 20.068 15.14 19.864 15.492 19.624C15.852 19.384 16.188 19.128 16.5 18.856C16.82 18.576 17.088 18.296 17.304 18.016ZM18.312 19.78L19.104 20.116C18.792 20.532 18.42 20.928 17.988 21.304C17.564 21.672 17.104 22.012 16.608 22.324C16.112 22.636 15.608 22.9 15.096 23.116C15.032 23.02 14.944 22.912 14.832 22.792C14.728 22.672 14.62 22.572 14.508 22.492C14.996 22.3 15.48 22.064 15.96 21.784C16.44 21.504 16.884 21.192 17.292 20.848C17.7 20.504 18.04 20.148 18.312 19.78ZM19.404 21.58L20.208 21.94C19.648 22.892 18.872 23.712 17.88 24.4C16.896 25.08 15.776 25.608 14.52 25.984C14.456 25.864 14.372 25.732 14.268 25.588C14.164 25.452 14.06 25.332 13.956 25.228C14.764 25.012 15.516 24.728 16.212 24.376C16.916 24.024 17.54 23.616 18.084 23.152C18.628 22.68 19.068 22.156 19.404 21.58ZM10.02 18.556H13.536V19.264H10.02V18.556ZM10.068 15.34H13.488V16.06H10.068V15.34ZM10.02 20.152H13.536V20.872H10.02V20.152ZM9.456 16.912H13.908V17.668H9.456V16.912ZM10.428 21.772H13.548V25.276H10.428V24.532H12.756V22.528H10.428V21.772ZM10.008 21.772H10.8V25.828H10.008V21.772ZM24.576 17.896H32.364V18.616H24.576V17.896ZM24.624 19.204L25.128 18.796C25.344 18.932 25.572 19.096 25.812 19.288C26.06 19.48 26.252 19.648 26.388 19.792L25.872 20.26C25.736 20.108 25.548 19.932 25.308 19.732C25.076 19.532 24.848 19.356 24.624 19.204ZM29.748 23.896L30.42 23.536C30.644 23.712 30.876 23.912 31.116 24.136C31.356 24.36 31.58 24.58 31.788 24.796C31.996 25.012 32.164 25.208 32.292 25.384L31.584 25.804C31.464 25.62 31.304 25.416 31.104 25.192C30.904 24.968 30.684 24.744 30.444 24.52C30.212 24.288 29.98 24.08 29.748 23.896ZM26.424 21.904V22.66H30.276V21.904H26.424ZM26.424 20.596V21.34H30.276V20.596H26.424ZM25.644 19.996H31.08V23.26H25.644V19.996ZM25.884 23.524L26.7 23.752C26.46 24.136 26.16 24.508 25.8 24.868C25.44 25.22 25.084 25.516 24.732 25.756C24.692 25.708 24.628 25.648 24.54 25.576C24.46 25.504 24.376 25.436 24.288 25.372C24.208 25.308 24.132 25.256 24.06 25.216C24.412 25 24.748 24.744 25.068 24.448C25.396 24.152 25.668 23.844 25.884 23.524ZM31.584 18.712L32.148 19.108C31.956 19.3 31.748 19.488 31.524 19.672C31.3 19.856 31.096 20.008 30.912 20.128L30.42 19.78C30.612 19.636 30.82 19.46 31.044 19.252C31.268 19.044 31.448 18.864 31.584 18.712ZM29.496 18.16C29.704 18.536 29.972 18.896 30.3 19.24C30.628 19.576 30.992 19.88 31.392 20.152C31.8 20.416 32.212 20.628 32.628 20.788C32.54 20.868 32.444 20.972 32.34 21.1C32.236 21.22 32.152 21.332 32.088 21.436C31.656 21.236 31.232 20.98 30.816 20.668C30.408 20.356 30.032 20.008 29.688 19.624C29.344 19.232 29.056 18.824 28.824 18.4L29.496 18.16ZM27.9 22.9H28.776V25.096C28.776 25.304 28.748 25.464 28.692 25.576C28.636 25.696 28.52 25.784 28.344 25.84C28.184 25.904 27.972 25.94 27.708 25.948C27.452 25.964 27.128 25.972 26.736 25.972C26.712 25.86 26.672 25.736 26.616 25.6C26.56 25.464 26.504 25.34 26.448 25.228C26.744 25.236 27.008 25.24 27.24 25.24C27.472 25.24 27.628 25.24 27.708 25.24C27.78 25.24 27.828 25.224 27.852 25.192C27.884 25.168 27.9 25.128 27.9 25.072V22.9ZM27.732 16.864L28.584 16.972C28.408 17.54 28.148 18.1 27.804 18.652C27.468 19.196 27.036 19.712 26.508 20.2C25.988 20.68 25.36 21.104 24.624 21.472C24.568 21.376 24.484 21.268 24.372 21.148C24.26 21.028 24.156 20.94 24.06 20.884C24.764 20.556 25.36 20.172 25.848 19.732C26.344 19.292 26.748 18.824 27.06 18.328C27.372 17.832 27.596 17.344 27.732 16.864ZM23.64 16.036H32.508V16.816H23.64V16.036ZM23.196 16.036H24.036V19.9C24.036 20.364 24.016 20.864 23.976 21.4C23.936 21.928 23.856 22.464 23.736 23.008C23.624 23.544 23.452 24.068 23.22 24.58C22.996 25.092 22.696 25.556 22.32 25.972C22.28 25.908 22.22 25.836 22.14 25.756C22.06 25.684 21.98 25.608 21.9 25.528C21.82 25.456 21.748 25.404 21.684 25.372C22.028 24.98 22.3 24.556 22.5 24.1C22.708 23.644 22.86 23.176 22.956 22.696C23.06 22.216 23.124 21.74 23.148 21.268C23.18 20.788 23.196 20.332 23.196 19.9V16.036ZM27.132 14.92H28.068V16.456H27.132V14.92ZM21.528 17.332L22.2 17.068C22.392 17.444 22.564 17.848 22.716 18.28C22.868 18.712 22.964 19.08 23.004 19.384L22.284 19.708C22.26 19.492 22.208 19.252 22.128 18.988C22.056 18.716 21.968 18.436 21.864 18.148C21.76 17.86 21.648 17.588 21.528 17.332ZM21.348 21.748C21.62 21.62 21.936 21.464 22.296 21.28C22.664 21.088 23.044 20.884 23.436 20.668L23.64 21.364C23.312 21.572 22.98 21.776 22.644 21.976C22.308 22.176 21.98 22.364 21.66 22.54L21.348 21.748ZM38.052 16.348H44.064V17.152H38.052V16.348ZM37.548 18.676H44.568V19.492H37.548V18.676ZM37.608 20.848H44.448V21.652H37.608V20.848ZM40.572 14.908H41.46V19.18H40.572V14.908ZM42.156 19.36H43.044V24.892C43.044 25.148 43.008 25.344 42.936 25.48C42.864 25.624 42.736 25.728 42.552 25.792C42.36 25.864 42.108 25.908 41.796 25.924C41.484 25.94 41.084 25.948 40.596 25.948C40.58 25.828 40.54 25.684 40.476 25.516C40.42 25.356 40.36 25.216 40.296 25.096C40.664 25.104 41 25.108 41.304 25.108C41.608 25.116 41.808 25.116 41.904 25.108C42 25.108 42.064 25.092 42.096 25.06C42.136 25.028 42.156 24.968 42.156 24.88V19.36ZM38.34 22.492L39.06 22.072C39.26 22.272 39.464 22.496 39.672 22.744C39.88 22.992 40.068 23.236 40.236 23.476C40.412 23.716 40.544 23.936 40.632 24.136L39.864 24.604C39.776 24.404 39.648 24.184 39.48 23.944C39.32 23.696 39.14 23.448 38.94 23.2C38.74 22.944 38.54 22.708 38.34 22.492ZM34.344 15.7H37.344V23.596H34.344V22.78H36.492V16.528H34.344V15.7ZM34.38 19.192H36.888V20.008H34.38V19.192ZM33.912 15.7H34.752V24.58H33.912V15.7ZM49.176 22.276H52.812V22.972H49.176V22.276ZM49.128 20.464H53.22V24.844H49.128V24.136H52.38V21.172H49.128V20.464ZM48.744 20.464H49.56V25.456H48.744V20.464ZM46.524 17.14H49.86V17.8H46.524V17.14ZM52.056 17.14H55.464V17.8H52.056V17.14ZM55.08 15.436H55.992V24.772C55.992 25.052 55.952 25.272 55.872 25.432C55.8 25.592 55.664 25.712 55.464 25.792C55.272 25.872 55.008 25.92 54.672 25.936C54.344 25.952 53.932 25.96 53.436 25.96C53.42 25.872 53.396 25.772 53.364 25.66C53.332 25.548 53.292 25.436 53.244 25.324C53.204 25.212 53.164 25.116 53.124 25.036C53.364 25.044 53.596 25.048 53.82 25.048C54.052 25.048 54.256 25.048 54.432 25.048C54.608 25.048 54.732 25.048 54.804 25.048C54.908 25.04 54.98 25.016 55.02 24.976C55.06 24.936 55.08 24.864 55.08 24.76V15.436ZM46.596 15.436H50.436V19.552H46.596V18.868H49.596V16.132H46.596V15.436ZM55.536 15.436V16.132H52.38V18.88H55.536V19.576H51.528V15.436H55.536ZM46.08 15.436H46.98V25.972H46.08V15.436Z" fill="white"/>
</svg>
