<svg width="41" height="48" viewBox="0 0 41 48" fill="none" xmlns="http://www.w3.org/2000/svg">
<path d="M34.8811 5.95583C30.9093 1.98581 25.7052 0 20.4993 0C15.295 0 10.0891 1.98581 6.11749 5.95583C-0.212461 12.2858 -1.86093 21.9427 2.25938 29.3515C6.98757 37.8509 20.4993 47.5 20.4993 47.5C20.4993 47.5 34.0126 37.8509 38.7408 29.3515C42.861 21.9426 41.2125 12.2858 34.8811 5.95583ZM20.4993 32.6918C13.6783 32.6918 8.14669 27.1602 8.14669 20.3409C8.14669 13.515 13.6783 7.98344 20.4993 7.98344C27.3219 7.98344 32.8535 13.515 32.8535 20.3409C32.8535 27.1602 27.3219 32.6918 20.4993 32.6918Z" fill="#19315A"/>
</svg>
