<svg width="41" height="50" viewBox="0 0 41 50" fill="none" xmlns="http://www.w3.org/2000/svg">
<path d="M25.4594 19.4287H15.5406V21.5696H25.4594V19.4287Z" fill="#19315A"/>
<path d="M21.5628 29.2432V25.497H25.4594V23.3545H15.5406V25.497H19.4369V29.2432H21.5628Z" fill="#19315A"/>
<path d="M14.9514 31.6436H13.5914L13.5381 31.698V35.2436L13.5914 35.298H14.1139L14.1676 35.2436V33.9487L14.1994 33.9171H14.9514C15.6556 33.9171 16.1461 33.4597 16.1461 32.7779C16.146 32.1001 15.6555 31.6436 14.9514 31.6436ZM14.9141 33.342H14.1994L14.1676 33.3096V32.2454L14.1994 32.2131H14.9141C15.2874 32.2131 15.5167 32.4445 15.5167 32.7779C15.5167 33.1169 15.2874 33.342 14.9141 33.342Z" fill="#19315A"/>
<path d="M18.5288 31.584C17.9046 31.584 17.4353 31.8858 17.2486 32.4656C17.1738 32.6916 17.1526 32.8953 17.1526 33.4705C17.1526 34.0447 17.1738 34.2494 17.2486 34.4761C17.4353 35.0552 17.9046 35.3562 18.5288 35.3562C19.158 35.3562 19.6273 35.0552 19.814 34.4761C19.8884 34.2494 19.91 34.0447 19.91 33.4705C19.91 32.8953 19.8884 32.6915 19.814 32.4656C19.6273 31.8858 19.158 31.584 18.5288 31.584ZM19.2058 34.3088C19.1047 34.605 18.8914 34.7867 18.5288 34.7867C18.1712 34.7867 17.9579 34.605 17.8568 34.3088C17.8136 34.1736 17.7929 33.9856 17.7929 33.4706C17.7929 32.9491 17.8136 32.7675 17.8568 32.6323C17.9579 32.3369 18.1712 32.1544 18.5288 32.1544C18.8914 32.1544 19.1047 32.3369 19.2058 32.6323C19.2491 32.7675 19.2698 32.9491 19.2698 33.4706C19.2697 33.9856 19.249 34.1736 19.2058 34.3088Z" fill="#19315A"/>
<path d="M22.5581 33.164L22.366 33.1378C21.8755 33.0675 21.6996 32.8952 21.6996 32.6425C21.6996 32.3581 21.9022 32.1543 22.2704 32.1543C22.5742 32.1543 22.8459 32.2451 23.1392 32.4395L23.2141 32.4229L23.4702 32.0248L23.4591 31.9506C23.1718 31.7301 22.7393 31.584 22.2865 31.584C21.5396 31.584 21.0593 32.0249 21.0593 32.686C21.0593 33.2936 21.4541 33.6317 22.1532 33.728L22.3449 33.7558C22.8459 33.8261 23.0059 33.9968 23.0059 34.2605C23.0059 34.5663 22.7558 34.7867 22.3233 34.7867C21.9183 34.7867 21.5713 34.5885 21.3365 34.4004L21.2624 34.4051L20.9319 34.7914L20.9421 34.872C21.2247 35.1422 21.7418 35.3562 22.2755 35.3562C23.1768 35.3562 23.6407 34.872 23.6407 34.2226C23.6406 33.5945 23.2571 33.2604 22.5581 33.164Z" fill="#19315A"/>
<path d="M24.5677 31.6436L24.5144 31.698V32.1602L24.5677 32.2131H25.5168L25.5489 32.2455V35.2436L25.6024 35.298H26.1254L26.1787 35.2436V32.2455L26.2105 32.2131H27.1596L27.2133 32.1602V31.698L27.1596 31.6436H24.5677Z" fill="#19315A"/>
<path d="M39.5133 1.49785C38.5991 0.575099 37.3201 -0.000780456 35.9244 7.9389e-07H5.07559C3.67904 -0.000780456 2.39987 0.575099 1.4867 1.49785C0.570815 2.41816 -0.000774644 3.70752 7.87979e-07 5.11445V36.4002C-0.000774644 37.8063 0.570815 39.0957 1.4867 40.0152C2.39977 40.9388 3.67904 41.5139 5.07559 41.5139H35.9244C37.3202 41.5139 38.5991 40.9387 39.5133 40.0152C40.4292 39.0957 41.0008 37.8063 41 36.4002V5.11445C41.0008 3.70742 40.4292 2.41816 39.5133 1.49785ZM37.7514 36.4001C37.7514 36.9136 37.5507 37.364 37.2167 37.702C36.881 38.0378 36.4341 38.2408 35.9244 38.2415H5.07559C4.56594 38.2408 4.119 38.0378 3.78333 37.702C3.4497 37.3639 3.24858 36.9136 3.24732 36.4001V5.11445C3.24858 4.60098 3.4497 4.1499 3.78333 3.81182C4.119 3.47598 4.56594 3.27227 5.07559 3.27227H35.9244C36.4341 3.27227 36.881 3.47598 37.2167 3.81182C37.5507 4.1499 37.7514 4.60107 37.7514 5.11445V36.4001Z" fill="#19315A"/>
<path d="M18.2672 9.74902H6.90137V13.5663H18.2672V9.74902Z" fill="#19315A"/>
<path d="M34.0989 9.74902H22.7327V13.5663H34.0989V9.74902Z" fill="#19315A"/>
<path d="M24.1534 46.7274H16.8466V41.6152H13.5991V49.9996H27.4008V41.6152H24.1534V46.7274Z" fill="#19315A"/>
</svg>
