<svg width="41" height="41" viewBox="0 0 41 41" fill="none" xmlns="http://www.w3.org/2000/svg">
<path d="M26.9994 23.1888C26.5887 22.7778 25.9218 22.7778 25.5101 23.1888L24.2264 24.4731C23.8516 24.8479 23.2557 24.8854 22.8369 24.5613C22.8369 24.5613 21.6091 23.7518 19.6015 21.7443C17.594 19.7367 16.7848 18.508 16.7848 18.508C16.4601 18.0895 16.4983 17.4945 16.873 17.1192L18.1568 15.8355C18.5684 15.4243 18.5684 14.7575 18.1568 14.3465L15.3268 11.5163C14.9158 11.1052 14.2495 11.1052 13.8378 11.5163C13.8281 11.5263 13.6852 11.6689 12.1314 13.2236C10.3215 15.0328 12.7155 20.5763 16.7419 24.6041C20.7689 28.6305 26.3134 31.0235 28.1226 29.2148C29.6757 27.6608 29.819 27.5169 29.8287 27.5076C30.2404 27.0965 30.2404 26.4296 29.8287 26.0192L26.9994 23.1888Z" fill="#19315A"/>
<path d="M20.5 0C9.17807 0 0 9.17831 0 20.5C0 31.8217 9.17807 41 20.5 41C31.8219 41 41 31.8217 41 20.5C41 9.17831 31.8219 0 20.5 0ZM20.5 37.7969C10.9625 37.7969 3.20312 30.0375 3.20312 20.5C3.20312 10.9625 10.9625 3.20312 20.5 3.20312C30.0375 3.20312 37.7969 10.9625 37.7969 20.5C37.7969 30.0375 30.0375 37.7969 20.5 37.7969Z" fill="#19315A"/>
</svg>
